运行 java测试 案例 com.example.demo.FFmpegJNITest
sbc run -t -v /home/user/JAVA-TEST/java-rtf-test/ffmpeg/files:/tmp@/home/user/JAVA-TEST/java-rtf-test/rmi.sh:/opt/app/lib/logback-classic-1.2.3.jar@/home/user/JAVA-TEST/java-rtf-test/test-classes/com:/opt/app/test-classes/com -p docker.bplatform.demo/java_rtf_ft:2.1 docker.bplatform.demo/java_rtf_test_all:1.0  /opt/app/runTest com.example.demo.FFmpegJNITest encode_video /tmp/02.yuv /tmp/02.mpg
TEST_DIR=/opt/app
/usr/lib/jvm/java-11-openjdk-arm64/bin/java -classpath /opt/app/lib/*:/opt/app/classes:/opt/app/test-classes com.example.demo.FFmpegJNITest encode_video /tmp/02.yuv /tmp/02.mpg
视频编码
Output #0, mpeg, to '/tmp/02.mpg':
    Stream #0:0: Video: mpeg1video, yuv420p, 640x480, q=2-31, 400 kb/s, 25 tbn
[48;5;0m[38;5;213m[mpeg @ 0xffff8086b390] [0m[48;5;0m[38;5;226mVBV buffer size not set, using default size of 230KB
If you want the mpeg file to be compliant to some specification
Like DVD, VCD or others, make sure you set the correct buffer size
[0mpts:0 pts_time:0 dts:-3600 dts_time:-0.04 duration:0 duration_time:0 stream_index:0
pts:3600 pts_time:0.04 dts:0 dts_time:0 duration:0 duration_time:0 stream_index:0
[48;5;0m[38;5;213m[mpeg @ 0xffff8086b390] [0m[48;5;0m[38;5;196mbuffer underflow st=0 bufi=11854 size=26290
[0m[48;5;0m[38;5;213m[mpeg @ 0xffff8086b390] [0m[48;5;0m[38;5;196mbuffer underflow st=0 bufi=13895 size=26290
[0m[48;5;0m[38;5;213m[mpeg @ 0xffff8086b390] [0m[48;5;0m[38;5;196mbuffer underflow st=0 bufi=15936 size=26290
[0m[48;5;0m[38;5;213m[mpeg @ 0xffff8086b390] [0m[48;5;0m[38;5;196mbuffer underflow st=0 bufi=17977 size=26290
[0m[48;5;0m[38;5;213m[mpeg @ 0xffff8086b390] [0m[48;5;0m[38;5;196mbuffer underflow st=0 bufi=20018 size=26290
[0m[48;5;0m[38;5;213m[mpeg @ 0xffff8086b390] [0m[48;5;0m[38;5;196mbuffer underflow st=0 bufi=22059 size=26290
[0m[48;5;0m[38;5;213m[mpeg @ 0xffff8086b390] [0m[48;5;0m[38;5;196mbuffer underflow st=0 bufi=24100 size=26290
[0m[48;5;0m[38;5;213m[mpeg @ 0xffff8086b390] [0m[48;5;0m[38;5;196mbuffer underflow st=0 bufi=26141 size=26290
[0mpts:7200 pts_time:0.08 dts:3600 dts_time:0.04 duration:0 duration_time:0 stream_index:0
[48;5;0m[38;5;213m[mpeg @ 0xffff8086b390] [0m[48;5;0m[38;5;196mbuffer underflow st=0 bufi=1883 size=9880
[0m[48;5;0m[38;5;213m[mpeg @ 0xffff8086b390] [0m[48;5;0m[38;5;196mbuffer underflow st=0 bufi=3924 size=9880
[0m[48;5;0m[38;5;213m[mpeg @ 0xffff8086b390] [0m[48;5;0m[38;5;196mbuffer underflow st=0 bufi=5965 size=9880
[0m[48;5;0m[38;5;213m[mpeg @ 0xffff8086b390] [0m[48;5;0m[38;5;196mbuffer underflow st=0 bufi=8006 size=9880
[0mpts:10800 pts_time:0.12 dts:7200 dts_time:0.08 duration:0 duration_time:0 stream_index:0
[48;5;0m[38;5;213m[mpeg @ 0xffff8086b390] [0m[48;5;0m[38;5;196mbuffer underflow st=0 bufi=158 size=21627
[0m[48;5;0m[38;5;213m[mpeg @ 0xffff8086b390] [0m[48;5;0m[38;5;196mbuffer underflow st=0 bufi=2199 size=21627
[0m[48;5;0m[38;5;213m[mpeg @ 0xffff8086b390] [0m[48;5;0m[38;5;196mbuffer underflow st=0 bufi=4240 size=21627
[0m[48;5;0m[38;5;213m[mpeg @ 0xffff8086b390] [0m[48;5;0m[38;5;196mbuffer underflow st=0 bufi=6281 size=21627
[0m[48;5;0m[38;5;213m[mpeg @ 0xffff8086b390] [0m[48;5;0m[38;5;196mbuffer underflow st=0 bufi=8322 size=21627
[0m[48;5;0m[38;5;213m[mpeg @ 0xffff8086b390] [0m[48;5;0m[38;5;196mbuffer underflow st=0 bufi=10363 size=21627
[0m[48;5;0m[38;5;213m[mpeg @ 0xffff8086b390] [0m[48;5;0m[38;5;196mbuffer underflow st=0 bufi=12404 size=21627
[0m[48;5;0m[38;5;213m[mpeg @ 0xffff8086b390] [0m[48;5;0m[38;5;196mbuffer underflow st=0 bufi=14445 size=21627
[0m[48;5;0m[38;5;213m[mpeg @ 0xffff8086b390] [0m[48;5;0m[38;5;196mbuffer underflow st=0 bufi=16486 size=21627
[0m[48;5;0m[38;5;213m[mpeg @ 0xffff8086b390] [0m[48;5;0m[38;5;196mbuffer underflow st=0 bufi=18527 size=21627
[0m[48;5;0m[38;5;213m[mpeg @ 0xffff8086b390] [0m[48;5;0m[38;5;196mbuffer underflow st=0 bufi=20568 size=21627
[0mpts:14400 pts_time:0.16 dts:10800 dts_time:0.12 duration:0 duration_time:0 stream_index:0
[48;5;0m[38;5;213m[mpeg @ 0xffff8086b390] [0m[48;5;0m[38;5;196mbuffer underflow st=0 bufi=973 size=1662
[0mpts:18000 pts_time:0.2 dts:14400 dts_time:0.16 duration:0 duration_time:0 stream_index:0
pts:21600 pts_time:0.24 dts:18000 dts_time:0.2 duration:0 duration_time:0 stream_index:0
[48;5;0m[38;5;213m[mpeg @ 0xffff8086b390] [0m[48;5;0m[38;5;196mbuffer underflow st=0 bufi=917 size=1037
[0mpts:25200 pts_time:0.28 dts:21600 dts_time:0.24 duration:0 duration_time:0 stream_index:0
pts:28800 pts_time:0.32 dts:25200 dts_time:0.28 duration:0 duration_time:0 stream_index:0
[48;5;0m[38;5;213m[mpeg @ 0xffff8086b390] [0m[48;5;0m[38;5;196mbuffer underflow st=0 bufi=1466 size=2054
[0mpts:32400 pts_time:0.36 dts:28800 dts_time:0.32 duration:0 duration_time:0 stream_index:0
pts:36000 pts_time:0.4 dts:32400 dts_time:0.36 duration:0 duration_time:0 stream_index:0
[48;5;0m[38;5;213m[mpeg @ 0xffff8086b390] [0m[48;5;0m[38;5;196mbuffer underflow st=0 bufi=390 size=811
[0mpts:39600 pts_time:0.44 dts:36000 dts_time:0.4 duration:0 duration_time:0 stream_index:0
pts:43200 pts_time:0.48 dts:39600 dts_time:0.44 duration:0 duration_time:0 stream_index:0
[48;5;0m[38;5;213m[mpeg @ 0xffff8086b390] [0m[48;5;0m[38;5;196mbuffer underflow st=0 bufi=685 size=19331
[0m[48;5;0m[38;5;213m[mpeg @ 0xffff8086b390] [0m[48;5;0m[38;5;196mbuffer underflow st=0 bufi=2726 size=19331
[0m[48;5;0m[38;5;213m[mpeg @ 0xffff8086b390] [0m[48;5;0m[38;5;196mbuffer underflow st=0 bufi=4767 size=19331
[0m[48;5;0m[38;5;213m[mpeg @ 0xffff8086b390] [0m[48;5;0m[38;5;196mbuffer underflow st=0 bufi=6808 size=19331
[0m[48;5;0m[38;5;213m[mpeg @ 0xffff8086b390] [0m[48;5;0m[38;5;196mbuffer underflow st=0 bufi=8849 size=19331
[0m[48;5;0m[38;5;213m[mpeg @ 0xffff8086b390] [0m[48;5;0m[38;5;196mbuffer underflow st=0 bufi=10890 size=19331
[0m[48;5;0m[38;5;213m[mpeg @ 0xffff8086b390] [0m[48;5;0m[38;5;196mbuffer underflow st=0 bufi=12931 size=19331
[0m[48;5;0m[38;5;213m[mpeg @ 0xffff8086b390] [0m[48;5;0m[38;5;196mbuffer underflow st=0 bufi=14972 size=19331
[0m[48;5;0m[38;5;213m[mpeg @ 0xffff8086b390] [0m[48;5;0m[38;5;196mbuffer underflow st=0 bufi=17013 size=19331
[0m[48;5;0m[38;5;213m[mpeg @ 0xffff8086b390] [0m[48;5;0m[38;5;196mbuffer underflow st=0 bufi=19054 size=19331
[0mpts:46800 pts_time:0.52 dts:43200 dts_time:0.48 duration:0 duration_time:0 stream_index:0
[48;5;0m[38;5;213m[mpeg @ 0xffff8086b390] [0m[48;5;0m[38;5;196mbuffer underflow st=0 bufi=1755 size=7243
[0m[48;5;0m[38;5;213m[mpeg @ 0xffff8086b390] [0m[48;5;0m[38;5;196mbuffer underflow st=0 bufi=3784 size=7243
[0m[48;5;0m[38;5;213m[mpeg @ 0xffff8086b390] [0m[48;5;0m[38;5;196mbuffer underflow st=0 bufi=5825 size=7243
[0mpts:50400 pts_time:0.56 dts:46800 dts_time:0.52 duration:0 duration_time:0 stream_index:0
[48;5;0m[38;5;213m[mpeg @ 0xffff8086b390] [0m[48;5;0m[38;5;196mbuffer underflow st=0 bufi=614 size=959
[0mpts:54000 pts_time:0.6 dts:50400 dts_time:0.56 duration:0 duration_time:0 stream_index:0
pts:57600 pts_time:0.64 dts:54000 dts_time:0.6 duration:0 duration_time:0 stream_index:0
[48;5;0m[38;5;213m[mpeg @ 0xffff8086b390] [0m[48;5;0m[38;5;196mbuffer underflow st=0 bufi=1206 size=2601
[0mpts:61200 pts_time:0.68 dts:57600 dts_time:0.64 duration:0 duration_time:0 stream_index:0
[48;5;0m[38;5;213m[mpeg @ 0xffff8086b390] [0m[48;5;0m[38;5;196mbuffer underflow st=0 bufi=637 size=3112
[0m[48;5;0m[38;5;213m[mpeg @ 0xffff8086b390] [0m[48;5;0m[38;5;196mbuffer underflow st=0 bufi=2678 size=3112
[0mpts:64800 pts_time:0.72 dts:61200 dts_time:0.68 duration:0 duration_time:0 stream_index:0
pts:68400 pts_time:0.76 dts:64800 dts_time:0.72 duration:0 duration_time:0 stream_index:0
[48;5;0m[38;5;213m[mpeg @ 0xffff8086b390] [0m[48;5;0m[38;5;196mbuffer underflow st=0 bufi=94 size=3807
[0m[48;5;0m[38;5;213m[mpeg @ 0xffff8086b390] [0m[48;5;0m[38;5;196mbuffer underflow st=0 bufi=2135 size=3807
[0mpts:72000 pts_time:0.8 dts:68400 dts_time:0.76 duration:0 duration_time:0 stream_index:0
pts:75600 pts_time:0.84 dts:72000 dts_time:0.8 duration:0 duration_time:0 stream_index:0
[48;5;0m[38;5;213m[mpeg @ 0xffff8086b390] [0m[48;5;0m[38;5;196mbuffer underflow st=0 bufi=169 size=10550
[0m[48;5;0m[38;5;213m[mpeg @ 0xffff8086b390] [0m[48;5;0m[38;5;196mbuffer underflow st=0 bufi=2210 size=10550
[0m[48;5;0m[38;5;213m[mpeg @ 0xffff8086b390] [0m[48;5;0m[38;5;196mbuffer underflow st=0 bufi=4251 size=10550
[0m[48;5;0m[38;5;213m[mpeg @ 0xffff8086b390] [0m[48;5;0m[38;5;196mbuffer underflow st=0 bufi=6292 size=10550
[0m[48;5;0m[38;5;213m[mpeg @ 0xffff8086b390] [0m[48;5;0m[38;5;196mbuffer underflow st=0 bufi=8333 size=10550
[0m[48;5;0m[38;5;213m[mpeg @ 0xffff8086b390] [0m[48;5;0m[38;5;196mbuffer underflow st=0 bufi=10374 size=10550
[0mpts:79200 pts_time:0.88 dts:75600 dts_time:0.84 duration:0 duration_time:0 stream_index:0
pts:82800 pts_time:0.92 dts:79200 dts_time:0.88 duration:0 duration_time:0 stream_index:0
[48;5;0m[38;5;213m[mpeg @ 0xffff8086b390] [0m[48;5;0m[38;5;196mbuffer underflow st=0 bufi=1220 size=1614
[0mpts:86400 pts_time:0.96 dts:82800 dts_time:0.92 duration:0 duration_time:0 stream_index:0
[48;5;0m[38;5;213m[mpeg @ 0xffff8086b390] [0m[48;5;0m[38;5;196mbuffer underflow st=0 bufi=1638 size=26190
[0m[48;5;0m[38;5;213m[mpeg @ 0xffff8086b390] [0m[48;5;0m[38;5;196mbuffer underflow st=0 bufi=3679 size=26190
[0m[48;5;0m[38;5;213m[mpeg @ 0xffff8086b390] [0m[48;5;0m[38;5;196mbuffer underflow st=0 bufi=5720 size=26190
[0m[48;5;0m[38;5;213m[mpeg @ 0xffff8086b390] [0m[48;5;0m[38;5;196mbuffer underflow st=0 bufi=7761 size=26190
[0m[48;5;0m[38;5;213m[mpeg @ 0xffff8086b390] [0m[48;5;0m[38;5;196mbuffer underflow st=0 bufi=9802 size=26190
[0m[48;5;0m[38;5;213m[mpeg @ 0xffff8086b390] [0m[48;5;0m[38;5;196mbuffer underflow st=0 bufi=11843 size=26190
[0m[48;5;0m[38;5;213m[mpeg @ 0xffff8086b390] [0m[48;5;0m[38;5;196mbuffer underflow st=0 bufi=13884 size=26190
[0m[48;5;0m[38;5;213m[mpeg @ 0xffff8086b390] [0m[48;5;0m[38;5;196mbuffer underflow st=0 bufi=15925 size=26190
[0m[48;5;0m[38;5;213m[mpeg @ 0xffff8086b390] [0m[48;5;0m[38;5;196mbuffer underflow st=0 bufi=17966 size=26190
[0m[48;5;0m[38;5;213m[mpeg @ 0xffff8086b390] [0m[48;5;0m[38;5;196mbuffer underflow st=0 bufi=20007 size=26190
[0m[48;5;0m[38;5;213m[mpeg @ 0xffff8086b390] [0m[48;5;0m[38;5;196mbuffer underflow st=0 bufi=22048 size=26190
[0m[48;5;0m[38;5;213m[mpeg @ 0xffff8086b390] [0m[48;5;0m[38;5;196mbuffer underflow st=0 bufi=24089 size=26190
[0m[48;5;0m[38;5;213m[mpeg @ 0xffff8086b390] [0m[48;5;0m[38;5;196mbuffer underflow st=0 bufi=26130 size=26190
[0mpts:90000 pts_time:1 dts:86400 dts_time:0.96 duration:0 duration_time:0 stream_index:0
[48;5;0m[38;5;213m[mpeg @ 0xffff8086b390] [0m[48;5;0m[38;5;196mbuffer underflow st=0 bufi=1972 size=8278
[0m[48;5;0m[38;5;213m[mpeg @ 0xffff8086b390] [0m[48;5;0m[38;5;196mbuffer underflow st=0 bufi=4013 size=8278
[0m[48;5;0m[38;5;213m[mpeg @ 0xffff8086b390] [0m[48;5;0m[38;5;196mbuffer underflow st=0 bufi=6054 size=8278
[0m[48;5;0m[38;5;213m[mpeg @ 0xffff8086b390] [0m[48;5;0m[38;5;196mbuffer underflow st=0 bufi=8095 size=8278
[0mpts:93600 pts_time:1.04 dts:90000 dts_time:1 duration:0 duration_time:0 stream_index:0
pts:97200 pts_time:1.08 dts:93600 dts_time:1.04 duration:0 duration_time:0 stream_index:0
pts:100800 pts_time:1.12 dts:97200 dts_time:1.08 duration:0 duration_time:0 stream_index:0
[48;5;0m[38;5;213m[mpeg @ 0xffff8086b390] [0m[48;5;0m[38;5;196mbuffer underflow st=0 bufi=866 size=2989
[0m[48;5;0m[38;5;213m[mpeg @ 0xffff8086b390] [0m[48;5;0m[38;5;196mbuffer underflow st=0 bufi=2907 size=2989
[0mpts:104400 pts_time:1.16 dts:100800 dts_time:1.12 duration:0 duration_time:0 stream_index:0
[48;5;0m[38;5;213m[mpeg @ 0xffff8086b390] [0m[48;5;0m[38;5;196mbuffer underflow st=0 bufi=1950 size=2008
[0mpts:108000 pts_time:1.2 dts:104400 dts_time:1.16 duration:0 duration_time:0 stream_index:0
pts:111600 pts_time:1.24 dts:108000 dts_time:1.2 duration:0 duration_time:0 stream_index:0
[48;5;0m[38;5;213m[mpeg @ 0xffff8086b390] [0m[48;5;0m[38;5;196mbuffer underflow st=0 bufi=438 size=3871
[0m[48;5;0m[38;5;213m[mpeg @ 0xffff8086b390] [0m[48;5;0m[38;5;196mbuffer underflow st=0 bufi=2479 size=3871
[0mpts:115200 pts_time:1.28 dts:111600 dts_time:1.24 duration:0 duration_time:0 stream_index:0
[48;5;0m[38;5;213m[mpeg @ 0xffff8086b390] [0m[48;5;0m[38;5;196mbuffer underflow st=0 bufi=640 size=3767
[0m[48;5;0m[38;5;213m[mpeg @ 0xffff8086b390] [0m[48;5;0m[38;5;196mbuffer underflow st=0 bufi=2681 size=3767
[0mpts:118800 pts_time:1.32 dts:115200 dts_time:1.28 duration:0 duration_time:0 stream_index:0
pts:122400 pts_time:1.36 dts:118800 dts_time:1.32 duration:0 duration_time:0 stream_index:0
[48;5;0m[38;5;213m[mpeg @ 0xffff8086b390] [0m[48;5;0m[38;5;196mbuffer underflow st=0 bufi=323 size=815
[0mpts:126000 pts_time:1.4 dts:122400 dts_time:1.36 duration:0 duration_time:0 stream_index:0
[48;5;0m[38;5;213m[mpeg @ 0xffff8086b390] [0m[48;5;0m[38;5;196mbuffer underflow st=0 bufi=1540 size=2063
[0mpts:129600 pts_time:1.44 dts:126000 dts_time:1.4 duration:0 duration_time:0 stream_index:0
[48;5;0m[38;5;213m[mpeg @ 0xffff8086b390] [0m[48;5;0m[38;5;196mbuffer underflow st=0 bufi=1509 size=27002
[0m[48;5;0m[38;5;213m[mpeg @ 0xffff8086b390] [0m[48;5;0m[38;5;196mbuffer underflow st=0 bufi=3550 size=27002
[0m[48;5;0m[38;5;213m[mpeg @ 0xffff8086b390] [0m[48;5;0m[38;5;196mbuffer underflow st=0 bufi=5591 size=27002
[0m[48;5;0m[38;5;213m[mpeg @ 0xffff8086b390] [0m[48;5;0m[38;5;196mbuffer underflow st=0 bufi=7632 size=27002
[0m[48;5;0m[38;5;213m[mpeg @ 0xffff8086b390] [0m[48;5;0m[38;5;196mbuffer underflow st=0 bufi=9673 size=27002
[0m[48;5;0m[38;5;213m[mpeg @ 0xffff8086b390] [0m[48;5;0m[38;5;196mbuffer underflow st=0 bufi=11714 size=27002
[0m[48;5;0m[38;5;213m[mpeg @ 0xffff8086b390] [0m[48;5;0m[38;5;196mbuffer underflow st=0 bufi=13755 size=27002
[0m[48;5;0m[38;5;213m[mpeg @ 0xffff8086b390] [0m[48;5;0m[38;5;196mbuffer underflow st=0 bufi=15796 size=27002
[0m[48;5;0m[38;5;213m[mpeg @ 0xffff8086b390] [0m[48;5;0m[38;5;196mbuffer underflow st=0 bufi=17837 size=27002
[0m[48;5;0m[38;5;213m[mpeg @ 0xffff8086b390] [0m[48;5;0m[38;5;196mbuffer underflow st=0 bufi=19878 size=27002
[0m[48;5;0m[38;5;213m[mpeg @ 0xffff8086b390] [0m[48;5;0m[38;5;196mbuffer underflow st=0 bufi=21919 size=27002
[0m[48;5;0m[38;5;213m[mpeg @ 0xffff8086b390] [0m[48;5;0m[38;5;196mbuffer underflow st=0 bufi=23948 size=27002
[0m[48;5;0m[38;5;213m[mpeg @ 0xffff8086b390] [0m[48;5;0m[38;5;196mbuffer underflow st=0 bufi=25989 size=27002
[0mpts:133200 pts_time:1.48 dts:129600 dts_time:1.44 duration:0 duration_time:0 stream_index:0
pts:136800 pts_time:1.52 dts:133200 dts_time:1.48 duration:0 duration_time:0 stream_index:0
pts:140400 pts_time:1.56 dts:136800 dts_time:1.52 duration:0 duration_time:0 stream_index:0
[48;5;0m[38;5;213m[mpeg @ 0xffff8086b390] [0m[48;5;0m[38;5;196mbuffer underflow st=0 bufi=410 size=1813
[0mpts:144000 pts_time:1.6 dts:140400 dts_time:1.56 duration:0 duration_time:0 stream_index:0
pts:147600 pts_time:1.64 dts:144000 dts_time:1.6 duration:0 duration_time:0 stream_index:0
[48;5;0m[38;5;213m[mpeg @ 0xffff8086b390] [0m[48;5;0m[38;5;196mbuffer underflow st=0 bufi=515 size=4923
[0m[48;5;0m[38;5;213m[mpeg @ 0xffff8086b390] [0m[48;5;0m[38;5;196mbuffer underflow st=0 bufi=2556 size=4923
[0m[48;5;0m[38;5;213m[mpeg @ 0xffff8086b390] [0m[48;5;0m[38;5;196mbuffer underflow st=0 bufi=4597 size=4923
[0mpts:151200 pts_time:1.68 dts:147600 dts_time:1.64 duration:0 duration_time:0 stream_index:0
[48;5;0m[38;5;213m[mpeg @ 0xffff8086b390] [0m[48;5;0m[38;5;196mbuffer underflow st=0 bufi=1706 size=5324
[0m[48;5;0m[38;5;213m[mpeg @ 0xffff8086b390] [0m[48;5;0m[38;5;196mbuffer underflow st=0 bufi=3747 size=5324
[0mpts:154800 pts_time:1.72 dts:151200 dts_time:1.68 duration:0 duration_time:0 stream_index:0
[48;5;0m[38;5;213m[mpeg @ 0xffff8086b390] [0m[48;5;0m[38;5;196mbuffer underflow st=0 bufi=455 size=726
[0mpts:158400 pts_time:1.76 dts:154800 dts_time:1.72 duration:0 duration_time:0 stream_index:0
pts:162000 pts_time:1.8 dts:158400 dts_time:1.76 duration:0 duration_time:0 stream_index:0
[48;5;0m[38;5;213m[mpeg @ 0xffff8086b390] [0m[48;5;0m[38;5;196mbuffer underflow st=0 bufi=1397 size=1814
[0mpts:165600 pts_time:1.84 dts:162000 dts_time:1.8 duration:0 duration_time:0 stream_index:0
[48;5;0m[38;5;213m[mpeg @ 0xffff8086b390] [0m[48;5;0m[38;5;196mbuffer underflow st=0 bufi=1615 size=2188
[0mpts:169200 pts_time:1.88 dts:165600 dts_time:1.84 duration:0 duration_time:0 stream_index:0
pts:172800 pts_time:1.92 dts:169200 dts_time:1.88 duration:0 duration_time:0 stream_index:0
[48;5;0m[38;5;213m[mpeg @ 0xffff8086b390] [0m[48;5;0m[38;5;196mbuffer underflow st=0 bufi=1101 size=26477
[0m[48;5;0m[38;5;213m[mpeg @ 0xffff8086b390] [0m[48;5;0m[38;5;196mbuffer underflow st=0 bufi=3142 size=26477
[0m[48;5;0m[38;5;213m[mpeg @ 0xffff8086b390] [0m[48;5;0m[38;5;196mbuffer underflow st=0 bufi=5183 size=26477
[0m[48;5;0m[38;5;213m[mpeg @ 0xffff8086b390] [0m[48;5;0m[38;5;196mbuffer underflow st=0 bufi=7224 size=26477
[0m[48;5;0m[38;5;213m[mpeg @ 0xffff8086b390] [0m[48;5;0m[38;5;196mbuffer underflow st=0 bufi=9265 size=26477
[0m[48;5;0m[38;5;213m[mpeg @ 0xffff8086b390] [0m[48;5;0m[38;5;196mbuffer underflow st=0 bufi=11306 size=26477
[0m[48;5;0m[38;5;213m[mpeg @ 0xffff8086b390] [0m[48;5;0m[38;5;196mbuffer underflow st=0 bufi=13347 size=26477
[0m[48;5;0m[38;5;213m[mpeg @ 0xffff8086b390] [0m[48;5;0m[38;5;196mbuffer underflow st=0 bufi=15388 size=26477
[0m[48;5;0m[38;5;213m[mpeg @ 0xffff8086b390] [0m[48;5;0m[38;5;196mbuffer underflow st=0 bufi=17429 size=26477
[0m[48;5;0m[38;5;213m[mpeg @ 0xffff8086b390] [0m[48;5;0m[38;5;196mbuffer underflow st=0 bufi=19470 size=26477
[0m[48;5;0m[38;5;213m[mpeg @ 0xffff8086b390] [0m[48;5;0m[38;5;196mbuffer underflow st=0 bufi=21511 size=26477
[0m[48;5;0m[38;5;213m[mpeg @ 0xffff8086b390] [0m[48;5;0m[38;5;196mbuffer underflow st=0 bufi=23552 size=26477
[0m[48;5;0m[38;5;213m[mpeg @ 0xffff8086b390] [0m[48;5;0m[38;5;196mbuffer underflow st=0 bufi=25593 size=26477
[0mpts:176400 pts_time:1.96 dts:172800 dts_time:1.92 duration:0 duration_time:0 stream_index:0
[48;5;0m[38;5;213m[mpeg @ 0xffff8086b390] [0m[48;5;0m[38;5;196mbuffer underflow st=0 bufi=1148 size=4022
[0m[48;5;0m[38;5;213m[mpeg @ 0xffff8086b390] [0m[48;5;0m[38;5;196mbuffer underflow st=0 bufi=3189 size=4022
[0mpts:180000 pts_time:2 dts:176400 dts_time:1.96 duration:0 duration_time:0 stream_index:0
pts:183600 pts_time:2.04 dts:180000 dts_time:2 duration:0 duration_time:0 stream_index:0
[48;5;0m[38;5;213m[mpeg @ 0xffff8086b390] [0m[48;5;0m[38;5;196mbuffer underflow st=0 bufi=1046 size=2886
[0mpts:187200 pts_time:2.08 dts:183600 dts_time:2.04 duration:0 duration_time:0 stream_index:0
pts:190800 pts_time:2.12 dts:187200 dts_time:2.08 duration:0 duration_time:0 stream_index:0
pts:194400 pts_time:2.16 dts:190800 dts_time:2.12 duration:0 duration_time:0 stream_index:0
[48;5;0m[38;5;213m[mpeg @ 0xffff8086b390] [0m[48;5;0m[38;5;196mbuffer underflow st=0 bufi=5 size=2313
[0m[48;5;0m[38;5;213m[mpeg @ 0xffff8086b390] [0m[48;5;0m[38;5;196mbuffer underflow st=0 bufi=2046 size=2313
[0mpts:198000 pts_time:2.2 dts:194400 dts_time:2.16 duration:0 duration_time:0 stream_index:0
pts:201600 pts_time:2.24 dts:198000 dts_time:2.2 duration:0 duration_time:0 stream_index:0
[48;5;0m[38;5;213m[mpeg @ 0xffff8086b390] [0m[48;5;0m[38;5;196mbuffer underflow st=0 bufi=553 size=896
[0mpts:205200 pts_time:2.28 dts:201600 dts_time:2.24 duration:0 duration_time:0 stream_index:0
pts:208800 pts_time:2.32 dts:205200 dts_time:2.28 duration:0 duration_time:0 stream_index:0
pts:212400 pts_time:2.36 dts:208800 dts_time:2.32 duration:0 duration_time:0 stream_index:0
[48;5;0m[38;5;213m[mpeg @ 0xffff8086b390] [0m[48;5;0m[38;5;196mbuffer underflow st=0 bufi=143 size=639
[0mpts:216000 pts_time:2.4 dts:212400 dts_time:2.36 duration:0 duration_time:0 stream_index:0
[48;5;0m[38;5;213m[mpeg @ 0xffff8086b390] [0m[48;5;0m[38;5;196mbuffer underflow st=0 bufi=1536 size=40741
[0m[48;5;0m[38;5;213m[mpeg @ 0xffff8086b390] [0m[48;5;0m[38;5;196mbuffer underflow st=0 bufi=3577 size=40741
[0m[48;5;0m[38;5;213m[mpeg @ 0xffff8086b390] [0m[48;5;0m[38;5;196mbuffer underflow st=0 bufi=5618 size=40741
[0m[48;5;0m[38;5;213m[mpeg @ 0xffff8086b390] [0m[48;5;0m[38;5;196mbuffer underflow st=0 bufi=7659 size=40741
[0m[48;5;0m[38;5;213m[mpeg @ 0xffff8086b390] [0m[48;5;0m[38;5;196mbuffer underflow st=0 bufi=9700 size=40741
[0m[48;5;0m[38;5;213m[mpeg @ 0xffff8086b390] [0m[48;5;0m[38;5;196mbuffer underflow st=0 bufi=11741 size=40741
[0m[48;5;0m[38;5;213m[mpeg @ 0xffff8086b390] [0m[48;5;0m[38;5;196mbuffer underflow st=0 bufi=13782 size=40741
[0m[48;5;0m[38;5;213m[mpeg @ 0xffff8086b390] [0m[48;5;0m[38;5;196mbuffer underflow st=0 bufi=15823 size=40741
[0m[48;5;0m[38;5;213m[mpeg @ 0xffff8086b390] [0m[48;5;0m[38;5;196mbuffer underflow st=0 bufi=17864 size=40741
[0m[48;5;0m[38;5;213m[mpeg @ 0xffff8086b390] [0m[48;5;0m[38;5;196mbuffer underflow st=0 bufi=19905 size=40741
[0m[48;5;0m[38;5;213m[mpeg @ 0xffff8086b390] [0m[48;5;0m[38;5;196mbuffer underflow st=0 bufi=21946 size=40741
[0m[48;5;0m[38;5;213m[mpeg @ 0xffff8086b390] [0m[48;5;0m[38;5;196mbuffer underflow st=0 bufi=23987 size=40741
[0m[48;5;0m[38;5;213m[mpeg @ 0xffff8086b390] [0m[48;5;0m[38;5;196mbuffer underflow st=0 bufi=26028 size=40741
[0m[48;5;0m[38;5;213m[mpeg @ 0xffff8086b390] [0m[48;5;0m[38;5;196mbuffer underflow st=0 bufi=28069 size=40741
[0m[48;5;0m[38;5;213m[mpeg @ 0xffff8086b390] [0m[48;5;0m[38;5;196mbuffer underflow st=0 bufi=30110 size=40741
[0m[48;5;0m[38;5;213m[mpeg @ 0xffff8086b390] [0m[48;5;0m[38;5;196mbuffer underflow st=0 bufi=32151 size=40741
[0m[48;5;0m[38;5;213m[mpeg @ 0xffff8086b390] [0m[48;5;0m[38;5;196mbuffer underflow st=0 bufi=34192 size=40741
[0m[48;5;0m[38;5;213m[mpeg @ 0xffff8086b390] [0m[48;5;0m[38;5;196mbuffer underflow st=0 bufi=36233 size=40741
[0m[48;5;0m[38;5;213m[mpeg @ 0xffff8086b390] [0m[48;5;0m[38;5;196mbuffer underflow st=0 bufi=38274 size=40741
[0m[48;5;0m[38;5;213m[mpeg @ 0xffff8086b390] [0m[48;5;0m[38;5;196mbuffer underflow st=0 bufi=40315 size=40741
[0mpts:219600 pts_time:2.44 dts:216000 dts_time:2.4 duration:0 duration_time:0 stream_index:0
pts:223200 pts_time:2.48 dts:219600 dts_time:2.44 duration:0 duration_time:0 stream_index:0
[48;5;0m[38;5;213m[mpeg @ 0xffff8086b390] [0m[48;5;0m[38;5;196mbuffer underflow st=0 bufi=1485 size=5542
[0m[48;5;0m[38;5;213m[mpeg @ 0xffff8086b390] [0m[48;5;0m[38;5;196mbuffer underflow st=0 bufi=3514 size=5542
[0mpts:226800 pts_time:2.52 dts:223200 dts_time:2.48 duration:0 duration_time:0 stream_index:0
[48;5;0m[38;5;213m[mpeg @ 0xffff8086b390] [0m[48;5;0m[38;5;196mbuffer underflow st=0 bufi=4 size=274
[0mpts:230400 pts_time:2.56 dts:226800 dts_time:2.52 duration:0 duration_time:0 stream_index:0
pts:234000 pts_time:2.6 dts:230400 dts_time:2.56 duration:0 duration_time:0 stream_index:0
pts:237600 pts_time:2.64 dts:234000 dts_time:2.6 duration:0 duration_time:0 stream_index:0
pts:241200 pts_time:2.68 dts:237600 dts_time:2.64 duration:0 duration_time:0 stream_index:0
pts:244800 pts_time:2.72 dts:241200 dts_time:2.68 duration:0 duration_time:0 stream_index:0
[48;5;0m[38;5;213m[mpeg @ 0xffff8086b390] [0m[48;5;0m[38;5;196mbuffer underflow st=0 bufi=278 size=8544
[0m[48;5;0m[38;5;213m[mpeg @ 0xffff8086b390] [0m[48;5;0m[38;5;196mbuffer underflow st=0 bufi=2319 size=8544
[0m[48;5;0m[38;5;213m[mpeg @ 0xffff8086b390] [0m[48;5;0m[38;5;196mbuffer underflow st=0 bufi=4360 size=8544
[0m[48;5;0m[38;5;213m[mpeg @ 0xffff8086b390] [0m[48;5;0m[38;5;196mbuffer underflow st=0 bufi=6401 size=8544
[0m[48;5;0m[38;5;213m[mpeg @ 0xffff8086b390] [0m[48;5;0m[38;5;196mbuffer underflow st=0 bufi=8442 size=8544
[0mpts:248400 pts_time:2.76 dts:244800 dts_time:2.72 duration:0 duration_time:0 stream_index:0
pts:252000 pts_time:2.8 dts:248400 dts_time:2.76 duration:0 duration_time:0 stream_index:0
pts:255600 pts_time:2.84 dts:252000 dts_time:2.8 duration:0 duration_time:0 stream_index:0
pts:259200 pts_time:2.88 dts:255600 dts_time:2.84 duration:0 duration_time:0 stream_index:0
[48;5;0m[38;5;213m[mpeg @ 0xffff8086b390] [0m[48;5;0m[38;5;196mbuffer underflow st=0 bufi=811 size=43186
[0m[48;5;0m[38;5;213m[mpeg @ 0xffff8086b390] [0m[48;5;0m[38;5;196mbuffer underflow st=0 bufi=2852 size=43186
[0m[48;5;0m[38;5;213m[mpeg @ 0xffff8086b390] [0m[48;5;0m[38;5;196mbuffer underflow st=0 bufi=4893 size=43186
[0m[48;5;0m[38;5;213m[mpeg @ 0xffff8086b390] [0m[48;5;0m[38;5;196mbuffer underflow st=0 bufi=6934 size=43186
[0m[48;5;0m[38;5;213m[mpeg @ 0xffff8086b390] [0m[48;5;0m[38;5;196mbuffer underflow st=0 bufi=8975 size=43186
[0m[48;5;0m[38;5;213m[mpeg @ 0xffff8086b390] [0m[48;5;0m[38;5;196mbuffer underflow st=0 bufi=11016 size=43186
[0m[48;5;0m[38;5;213m[mpeg @ 0xffff8086b390] [0m[48;5;0m[38;5;196mbuffer underflow st=0 bufi=13057 size=43186
[0m[48;5;0m[38;5;213m[mpeg @ 0xffff8086b390] [0m[48;5;0m[38;5;196mbuffer underflow st=0 bufi=15098 size=43186
[0m[48;5;0m[38;5;213m[mpeg @ 0xffff8086b390] [0m[48;5;0m[38;5;196mbuffer underflow st=0 bufi=17139 size=43186
[0m[48;5;0m[38;5;213m[mpeg @ 0xffff8086b390] [0m[48;5;0m[38;5;196mbuffer underflow st=0 bufi=19180 size=43186
[0m[48;5;0m[38;5;213m[mpeg @ 0xffff8086b390] [0m[48;5;0m[38;5;196mbuffer underflow st=0 bufi=21221 size=43186
[0m[48;5;0m[38;5;213m[mpeg @ 0xffff8086b390] [0m[48;5;0m[38;5;196mbuffer underflow st=0 bufi=23262 size=43186
[0m[48;5;0m[38;5;213m[mpeg @ 0xffff8086b390] [0m[48;5;0m[38;5;196mbuffer underflow st=0 bufi=25303 size=43186
[0m[48;5;0m[38;5;213m[mpeg @ 0xffff8086b390] [0m[48;5;0m[38;5;196mbuffer underflow st=0 bufi=27344 size=43186
[0m[48;5;0m[38;5;213m[mpeg @ 0xffff8086b390] [0m[48;5;0m[38;5;196mbuffer underflow st=0 bufi=29385 size=43186
[0m[48;5;0m[38;5;213m[mpeg @ 0xffff8086b390] [0m[48;5;0m[38;5;196mbuffer underflow st=0 bufi=31426 size=43186
[0m[48;5;0m[38;5;213m[mpeg @ 0xffff8086b390] [0m[48;5;0m[38;5;196mbuffer underflow st=0 bufi=33467 size=43186
[0m[48;5;0m[38;5;213m[mpeg @ 0xffff8086b390] [0m[48;5;0m[38;5;196mbuffer underflow st=0 bufi=35508 size=43186
[0m[48;5;0m[38;5;213m[mpeg @ 0xffff8086b390] [0m[48;5;0m[38;5;196mbuffer underflow st=0 bufi=37549 size=43186
[0m[48;5;0m[38;5;213m[mpeg @ 0xffff8086b390] [0m[48;5;0m[38;5;196mbuffer underflow st=0 bufi=39590 size=43186
[0m[48;5;0m[38;5;213m[mpeg @ 0xffff8086b390] [0m[48;5;0m[38;5;196mbuffer underflow st=0 bufi=41631 size=43186
[0mpts:262800 pts_time:2.92 dts:259200 dts_time:2.88 duration:0 duration_time:0 stream_index:0
pts:266400 pts_time:2.96 dts:262800 dts_time:2.92 duration:0 duration_time:0 stream_index:0
pts:270000 pts_time:3 dts:266400 dts_time:2.96 duration:0 duration_time:0 stream_index:0
[48;5;0m[38;5;213m[mpeg @ 0xffff8086b390] [0m[48;5;0m[38;5;196mbuffer underflow st=0 bufi=60 size=74
[0m[48;5;0m[38;5;213m[mpeg @ 0xffff8086b390] [0m[48;5;0m[38;5;196mbuffer underflow st=0 bufi=2018 size=8501
[0m[48;5;0m[38;5;213m[mpeg @ 0xffff8086b390] [0m[48;5;0m[38;5;196mbuffer underflow st=0 bufi=4059 size=8501
[0m[48;5;0m[38;5;213m[mpeg @ 0xffff8086b390] [0m[48;5;0m[38;5;196mbuffer underflow st=0 bufi=6100 size=8501
[0m[48;5;0m[38;5;213m[mpeg @ 0xffff8086b390] [0m[48;5;0m[38;5;196mbuffer underflow st=0 bufi=8141 size=8501
[0mpts:273600 pts_time:3.04 dts:270000 dts_time:3 duration:0 duration_time:0 stream_index:0
pts:277200 pts_time:3.08 dts:273600 dts_time:3.04 duration:0 duration_time:0 stream_index:0
pts:280800 pts_time:3.12 dts:277200 dts_time:3.08 duration:0 duration_time:0 stream_index:0
pts:284400 pts_time:3.16 dts:280800 dts_time:3.12 duration:0 duration_time:0 stream_index:0
pts:288000 pts_time:3.2 dts:284400 dts_time:3.16 duration:0 duration_time:0 stream_index:0
[48;5;0m[38;5;213m[mpeg @ 0xffff8086b390] [0m[48;5;0m[38;5;196mbuffer underflow st=0 bufi=848 size=1976
[0mpts:291600 pts_time:3.24 dts:288000 dts_time:3.2 duration:0 duration_time:0 stream_index:0
pts:295200 pts_time:3.28 dts:291600 dts_time:3.24 duration:0 duration_time:0 stream_index:0
pts:298800 pts_time:3.32 dts:295200 dts_time:3.28 duration:0 duration_time:0 stream_index:0
pts:302400 pts_time:3.36 dts:298800 dts_time:3.32 duration:0 duration_time:0 stream_index:0
[48;5;0m[38;5;213m[mpeg @ 0xffff8086b390] [0m[48;5;0m[38;5;196mbuffer underflow st=0 bufi=213 size=41183
[0m[48;5;0m[38;5;213m[mpeg @ 0xffff8086b390] [0m[48;5;0m[38;5;196mbuffer underflow st=0 bufi=2254 size=41183
[0m[48;5;0m[38;5;213m[mpeg @ 0xffff8086b390] [0m[48;5;0m[38;5;196mbuffer underflow st=0 bufi=4295 size=41183
[0m[48;5;0m[38;5;213m[mpeg @ 0xffff8086b390] [0m[48;5;0m[38;5;196mbuffer underflow st=0 bufi=6336 size=41183
[0m[48;5;0m[38;5;213m[mpeg @ 0xffff8086b390] [0m[48;5;0m[38;5;196mbuffer underflow st=0 bufi=8377 size=41183
[0m[48;5;0m[38;5;213m[mpeg @ 0xffff8086b390] [0m[48;5;0m[38;5;196mbuffer underflow st=0 bufi=10418 size=41183
[0m[48;5;0m[38;5;213m[mpeg @ 0xffff8086b390] [0m[48;5;0m[38;5;196mbuffer underflow st=0 bufi=12459 size=41183
[0m[48;5;0m[38;5;213m[mpeg @ 0xffff8086b390] [0m[48;5;0m[38;5;196mbuffer underflow st=0 bufi=14500 size=41183
[0m[48;5;0m[38;5;213m[mpeg @ 0xffff8086b390] [0m[48;5;0m[38;5;196mbuffer underflow st=0 bufi=16541 size=41183
[0m[48;5;0m[38;5;213m[mpeg @ 0xffff8086b390] [0m[48;5;0m[38;5;196mbuffer underflow st=0 bufi=18582 size=41183
[0m[48;5;0m[38;5;213m[mpeg @ 0xffff8086b390] [0m[48;5;0m[38;5;196mbuffer underflow st=0 bufi=20623 size=41183
[0m[48;5;0m[38;5;213m[mpeg @ 0xffff8086b390] [0m[48;5;0m[38;5;196mbuffer underflow st=0 bufi=22664 size=41183
[0m[48;5;0m[38;5;213m[mpeg @ 0xffff8086b390] [0m[48;5;0m[38;5;196mbuffer underflow st=0 bufi=24705 size=41183
[0m[48;5;0m[38;5;213m[mpeg @ 0xffff8086b390] [0m[48;5;0m[38;5;196mbuffer underflow st=0 bufi=26746 size=41183
[0m[48;5;0m[38;5;213m[mpeg @ 0xffff8086b390] [0m[48;5;0m[38;5;196mbuffer underflow st=0 bufi=28787 size=41183
[0m[48;5;0m[38;5;213m[mpeg @ 0xffff8086b390] [0m[48;5;0m[38;5;196mbuffer underflow st=0 bufi=30828 size=41183
[0m[48;5;0m[38;5;213m[mpeg @ 0xffff8086b390] [0m[48;5;0m[38;5;196mbuffer underflow st=0 bufi=32869 size=41183
[0m[48;5;0m[38;5;213m[mpeg @ 0xffff8086b390] [0m[48;5;0m[38;5;196mbuffer underflow st=0 bufi=34910 size=41183
[0m[48;5;0m[38;5;213m[mpeg @ 0xffff8086b390] [0m[48;5;0m[38;5;196mbuffer underflow st=0 bufi=36939 size=41183
[0m[48;5;0m[38;5;213m[mpeg @ 0xffff8086b390] [0m[48;5;0m[38;5;196mbuffer underflow st=0 bufi=38980 size=41183
[0m[48;5;0m[38;5;213m[mpeg @ 0xffff8086b390] [0m[48;5;0m[38;5;196mbuffer underflow st=0 bufi=41021 size=41183
[0mpts:306000 pts_time:3.4 dts:302400 dts_time:3.36 duration:0 duration_time:0 stream_index:0
[48;5;0m[38;5;213m[mpeg @ 0xffff8086b390] [0m[48;5;0m[38;5;196mbuffer underflow st=0 bufi=1870 size=5708
[0m[48;5;0m[38;5;213m[mpeg @ 0xffff8086b390] [0m[48;5;0m[38;5;196mbuffer underflow st=0 bufi=3911 size=5708
[0mpts:309600 pts_time:3.44 dts:306000 dts_time:3.4 duration:0 duration_time:0 stream_index:0
pts:313200 pts_time:3.48 dts:309600 dts_time:3.44 duration:0 duration_time:0 stream_index:0
[48;5;0m[38;5;213m[mpeg @ 0xffff8086b390] [0m[48;5;0m[38;5;196mbuffer underflow st=0 bufi=113 size=133
[0mpts:316800 pts_time:3.52 dts:313200 dts_time:3.48 duration:0 duration_time:0 stream_index:0
pts:320400 pts_time:3.56 dts:316800 dts_time:3.52 duration:0 duration_time:0 stream_index:0
pts:324000 pts_time:3.6 dts:320400 dts_time:3.56 duration:0 duration_time:0 stream_index:0
pts:327600 pts_time:3.64 dts:324000 dts_time:3.6 duration:0 duration_time:0 stream_index:0
[48;5;0m[38;5;213m[mpeg @ 0xffff8086b390] [0m[48;5;0m[38;5;196mbuffer underflow st=0 bufi=1148 size=9022
[0m[48;5;0m[38;5;213m[mpeg @ 0xffff8086b390] [0m[48;5;0m[38;5;196mbuffer underflow st=0 bufi=3189 size=9022
[0m[48;5;0m[38;5;213m[mpeg @ 0xffff8086b390] [0m[48;5;0m[38;5;196mbuffer underflow st=0 bufi=5230 size=9022
[0m[48;5;0m[38;5;213m[mpeg @ 0xffff8086b390] [0m[48;5;0m[38;5;196mbuffer underflow st=0 bufi=7271 size=9022
[0mpts:331200 pts_time:3.68 dts:327600 dts_time:3.64 duration:0 duration_time:0 stream_index:0
pts:334800 pts_time:3.72 dts:331200 dts_time:3.68 duration:0 duration_time:0 stream_index:0
pts:338400 pts_time:3.76 dts:334800 dts_time:3.72 duration:0 duration_time:0 stream_index:0
pts:342000 pts_time:3.8 dts:338400 dts_time:3.76 duration:0 duration_time:0 stream_index:0
pts:345600 pts_time:3.84 dts:342000 dts_time:3.8 duration:0 duration_time:0 stream_index:0
[48;5;0m[38;5;213m[mpeg @ 0xffff8086b390] [0m[48;5;0m[38;5;196mbuffer underflow st=0 bufi=4 size=43270
[0m[48;5;0m[38;5;213m[mpeg @ 0xffff8086b390] [0m[48;5;0m[38;5;196mbuffer underflow st=0 bufi=2045 size=43270
[0m[48;5;0m[38;5;213m[mpeg @ 0xffff8086b390] [0m[48;5;0m[38;5;196mbuffer underflow st=0 bufi=4086 size=43270
[0m[48;5;0m[38;5;213m[mpeg @ 0xffff8086b390] [0m[48;5;0m[38;5;196mbuffer underflow st=0 bufi=6127 size=43270
[0m[48;5;0m[38;5;213m[mpeg @ 0xffff8086b390] [0m[48;5;0m[38;5;196mbuffer underflow st=0 bufi=8168 size=43270
[0m[48;5;0m[38;5;213m[mpeg @ 0xffff8086b390] [0m[48;5;0m[38;5;196mbuffer underflow st=0 bufi=10209 size=43270
[0m[48;5;0m[38;5;213m[mpeg @ 0xffff8086b390] [0m[48;5;0m[38;5;196mbuffer underflow st=0 bufi=12250 size=43270
[0m[48;5;0m[38;5;213m[mpeg @ 0xffff8086b390] [0m[48;5;0m[38;5;196mbuffer underflow st=0 bufi=14291 size=43270
[0m[48;5;0m[38;5;213m[mpeg @ 0xffff8086b390] [0m[48;5;0m[38;5;196mbuffer underflow st=0 bufi=16332 size=43270
[0m[48;5;0m[38;5;213m[mpeg @ 0xffff8086b390] [0m[48;5;0m[38;5;196mbuffer underflow st=0 bufi=18373 size=43270
[0m[48;5;0m[38;5;213m[mpeg @ 0xffff8086b390] [0m[48;5;0m[38;5;196mbuffer underflow st=0 bufi=20414 size=43270
[0m[48;5;0m[38;5;213m[mpeg @ 0xffff8086b390] [0m[48;5;0m[38;5;196mbuffer underflow st=0 bufi=22455 size=43270
[0m[48;5;0m[38;5;213m[mpeg @ 0xffff8086b390] [0m[48;5;0m[38;5;196mbuffer underflow st=0 bufi=24496 size=43270
[0m[48;5;0m[38;5;213m[mpeg @ 0xffff8086b390] [0m[48;5;0m[38;5;196mbuffer underflow st=0 bufi=26537 size=43270
[0m[48;5;0m[38;5;213m[mpeg @ 0xffff8086b390] [0m[48;5;0m[38;5;196mbuffer underflow st=0 bufi=28578 size=43270
[0m[48;5;0m[38;5;213m[mpeg @ 0xffff8086b390] [0m[48;5;0m[38;5;196mbuffer underflow st=0 bufi=30619 size=43270
[0m[48;5;0m[38;5;213m[mpeg @ 0xffff8086b390] [0m[48;5;0m[38;5;196mbuffer underflow st=0 bufi=32660 size=43270
[0m[48;5;0m[38;5;213m[mpeg @ 0xffff8086b390] [0m[48;5;0m[38;5;196mbuffer underflow st=0 bufi=34701 size=43270
[0m[48;5;0m[38;5;213m[mpeg @ 0xffff8086b390] [0m[48;5;0m[38;5;196mbuffer underflow st=0 bufi=36742 size=43270
[0m[48;5;0m[38;5;213m[mpeg @ 0xffff8086b390] [0m[48;5;0m[38;5;196mbuffer underflow st=0 bufi=38783 size=43270
[0m[48;5;0m[38;5;213m[mpeg @ 0xffff8086b390] [0m[48;5;0m[38;5;196mbuffer underflow st=0 bufi=40824 size=43270
[0m[48;5;0m[38;5;213m[mpeg @ 0xffff8086b390] [0m[48;5;0m[38;5;196mbuffer underflow st=0 bufi=42865 size=43270
[0mpts:349200 pts_time:3.88 dts:345600 dts_time:3.84 duration:0 duration_time:0 stream_index:0
[48;5;0m[38;5;213m[mpeg @ 0xffff8086b390] [0m[48;5;0m[38;5;196mbuffer underflow st=0 bufi=1627 size=8612
[0m[48;5;0m[38;5;213m[mpeg @ 0xffff8086b390] [0m[48;5;0m[38;5;196mbuffer underflow st=0 bufi=3668 size=8612
[0m[48;5;0m[38;5;213m[mpeg @ 0xffff8086b390] [0m[48;5;0m[38;5;196mbuffer underflow st=0 bufi=5709 size=8612
[0m[48;5;0m[38;5;213m[mpeg @ 0xffff8086b390] [0m[48;5;0m[38;5;196mbuffer underflow st=0 bufi=7750 size=8612
[0mpts:352800 pts_time:3.92 dts:349200 dts_time:3.88 duration:0 duration_time:0 stream_index:0
pts:356400 pts_time:3.96 dts:352800 dts_time:3.92 duration:0 duration_time:0 stream_index:0
pts:360000 pts_time:4 dts:356400 dts_time:3.96 duration:0 duration_time:0 stream_index:0
pts:363600 pts_time:4.04 dts:360000 dts_time:4 duration:0 duration_time:0 stream_index:0
[48;5;0m[38;5;213m[mpeg @ 0xffff8086b390] [0m[48;5;0m[38;5;196mbuffer underflow st=0 bufi=960 size=25661
[0m[48;5;0m[38;5;213m[mpeg @ 0xffff8086b390] [0m[48;5;0m[38;5;196mbuffer underflow st=0 bufi=3001 size=25661
[0m[48;5;0m[38;5;213m[mpeg @ 0xffff8086b390] [0m[48;5;0m[38;5;196mbuffer underflow st=0 bufi=5042 size=25661
[0m[48;5;0m[38;5;213m[mpeg @ 0xffff8086b390] [0m[48;5;0m[38;5;196mbuffer underflow st=0 bufi=7083 size=25661
[0m[48;5;0m[38;5;213m[mpeg @ 0xffff8086b390] [0m[48;5;0m[38;5;196mbuffer underflow st=0 bufi=9124 size=25661
[0m[48;5;0m[38;5;213m[mpeg @ 0xffff8086b390] [0m[48;5;0m[38;5;196mbuffer underflow st=0 bufi=11165 size=25661
[0m[48;5;0m[38;5;213m[mpeg @ 0xffff8086b390] [0m[48;5;0m[38;5;196mbuffer underflow st=0 bufi=13206 size=25661
[0m[48;5;0m[38;5;213m[mpeg @ 0xffff8086b390] [0m[48;5;0m[38;5;196mbuffer underflow st=0 bufi=15247 size=25661
[0m[48;5;0m[38;5;213m[mpeg @ 0xffff8086b390] [0m[48;5;0m[38;5;196mbuffer underflow st=0 bufi=17288 size=25661
[0m[48;5;0m[38;5;213m[mpeg @ 0xffff8086b390] [0m[48;5;0m[38;5;196mbuffer underflow st=0 bufi=19329 size=25661
[0m[48;5;0m[38;5;213m[mpeg @ 0xffff8086b390] [0m[48;5;0m[38;5;196mbuffer underflow st=0 bufi=21370 size=25661
[0m[48;5;0m[38;5;213m[mpeg @ 0xffff8086b390] [0m[48;5;0m[38;5;196mbuffer underflow st=0 bufi=23411 size=25661
[0m[48;5;0m[38;5;213m[mpeg @ 0xffff8086b390] [0m[48;5;0m[38;5;196mbuffer underflow st=0 bufi=25452 size=25661
[0mpts:367200 pts_time:4.08 dts:363600 dts_time:4.04 duration:0 duration_time:0 stream_index:0
[48;5;0m[38;5;213m[mpeg @ 0xffff8086b390] [0m[48;5;0m[38;5;196mbuffer underflow st=0 bufi=1823 size=5048
[0m[48;5;0m[38;5;213m[mpeg @ 0xffff8086b390] [0m[48;5;0m[38;5;196mbuffer underflow st=0 bufi=3864 size=5048
[0mpts:370800 pts_time:4.12 dts:367200 dts_time:4.08 duration:0 duration_time:0 stream_index:0
[48;5;0m[38;5;213m[mpeg @ 0xffff8086b390] [0m[48;5;0m[38;5;196mbuffer underflow st=0 bufi=848 size=5154
[0m[48;5;0m[38;5;213m[mpeg @ 0xffff8086b390] [0m[48;5;0m[38;5;196mbuffer underflow st=0 bufi=2862 size=5154
[0m[48;5;0m[38;5;213m[mpeg @ 0xffff8086b390] [0m[48;5;0m[38;5;196mbuffer underflow st=0 bufi=4903 size=5154
[0mpts:374400 pts_time:4.16 dts:370800 dts_time:4.12 duration:0 duration_time:0 stream_index:0
[48;5;0m[38;5;213m[mpeg @ 0xffff8086b390] [0m[48;5;0m[38;5;196mbuffer underflow st=0 bufi=1781 size=2857
[0mpts:378000 pts_time:4.2 dts:374400 dts_time:4.16 duration:0 duration_time:0 stream_index:0
[48;5;0m[38;5;213m[mpeg @ 0xffff8086b390] [0m[48;5;0m[38;5;196mbuffer underflow st=0 bufi=956 size=3128
[0m[48;5;0m[38;5;213m[mpeg @ 0xffff8086b390] [0m[48;5;0m[38;5;196mbuffer underflow st=0 bufi=2997 size=3128
[0mpts:381600 pts_time:4.24 dts:378000 dts_time:4.2 duration:0 duration_time:0 stream_index:0
[48;5;0m[38;5;213m[mpeg @ 0xffff8086b390] [0m[48;5;0m[38;5;196mbuffer underflow st=0 bufi=1901 size=3246
[0mpts:385200 pts_time:4.28 dts:381600 dts_time:4.24 duration:0 duration_time:0 stream_index:0
[48;5;0m[38;5;213m[mpeg @ 0xffff8086b390] [0m[48;5;0m[38;5;196mbuffer underflow st=0 bufi=687 size=2116
[0mpts:388800 pts_time:4.32 dts:385200 dts_time:4.28 duration:0 duration_time:0 stream_index:0
[48;5;0m[38;5;213m[mpeg @ 0xffff8086b390] [0m[48;5;0m[38;5;196mbuffer underflow st=0 bufi=603 size=12036
[0m[48;5;0m[38;5;213m[mpeg @ 0xffff8086b390] [0m[48;5;0m[38;5;196mbuffer underflow st=0 bufi=2644 size=12036
[0m[48;5;0m[38;5;213m[mpeg @ 0xffff8086b390] [0m[48;5;0m[38;5;196mbuffer underflow st=0 bufi=4685 size=12036
[0m[48;5;0m[38;5;213m[mpeg @ 0xffff8086b390] [0m[48;5;0m[38;5;196mbuffer underflow st=0 bufi=6726 size=12036
[0m[48;5;0m[38;5;213m[mpeg @ 0xffff8086b390] [0m[48;5;0m[38;5;196mbuffer underflow st=0 bufi=8767 size=12036
[0m[48;5;0m[38;5;213m[mpeg @ 0xffff8086b390] [0m[48;5;0m[38;5;196mbuffer underflow st=0 bufi=10808 size=12036
[0mpts:392400 pts_time:4.36 dts:388800 dts_time:4.32 duration:0 duration_time:0 stream_index:0
[48;5;0m[38;5;213m[mpeg @ 0xffff8086b390] [0m[48;5;0m[38;5;196mbuffer underflow st=0 bufi=804 size=2973
[0m[48;5;0m[38;5;213m[mpeg @ 0xffff8086b390] [0m[48;5;0m[38;5;196mbuffer underflow st=0 bufi=2845 size=2973
[0mpts:396000 pts_time:4.4 dts:392400 dts_time:4.36 duration:0 duration_time:0 stream_index:0
[48;5;0m[38;5;213m[mpeg @ 0xffff8086b390] [0m[48;5;0m[38;5;196mbuffer underflow st=0 bufi=1904 size=2806
[0mpts:399600 pts_time:4.44 dts:396000 dts_time:4.4 duration:0 duration_time:0 stream_index:0
[48;5;0m[38;5;213m[mpeg @ 0xffff8086b390] [0m[48;5;0m[38;5;196mbuffer underflow st=0 bufi=1130 size=2489
[0mpts:403200 pts_time:4.48 dts:399600 dts_time:4.44 duration:0 duration_time:0 stream_index:0
[48;5;0m[38;5;213m[mpeg @ 0xffff8086b390] [0m[48;5;0m[38;5;196mbuffer underflow st=0 bufi=673 size=1496
[0mpts:406800 pts_time:4.52 dts:403200 dts_time:4.48 duration:0 duration_time:0 stream_index:0
[48;5;0m[38;5;213m[mpeg @ 0xffff8086b390] [0m[48;5;0m[38;5;196mbuffer underflow st=0 bufi=1209 size=1773
[0mpts:410400 pts_time:4.56 dts:406800 dts_time:4.52 duration:0 duration_time:0 stream_index:0
[48;5;0m[38;5;213m[mpeg @ 0xffff8086b390] [0m[48;5;0m[38;5;196mbuffer underflow st=0 bufi=1468 size=2909
[0mpts:414000 pts_time:4.6 dts:410400 dts_time:4.56 duration:0 duration_time:0 stream_index:0
[48;5;0m[38;5;213m[mpeg @ 0xffff8086b390] [0m[48;5;0m[38;5;196mbuffer underflow st=0 bufi=591 size=2475
[0mpts:417600 pts_time:4.64 dts:414000 dts_time:4.6 duration:0 duration_time:0 stream_index:0
[48;5;0m[38;5;213m[mpeg @ 0xffff8086b390] [0m[48;5;0m[38;5;196mbuffer underflow st=0 bufi=148 size=2551
[0m[48;5;0m[38;5;213m[mpeg @ 0xffff8086b390] [0m[48;5;0m[38;5;196mbuffer underflow st=0 bufi=2189 size=2551
[0mpts:421200 pts_time:4.68 dts:417600 dts_time:4.64 duration:0 duration_time:0 stream_index:0
[48;5;0m[38;5;213m[mpeg @ 0xffff8086b390] [0m[48;5;0m[38;5;196mbuffer underflow st=0 bufi=1670 size=1953
[0mpts:424800 pts_time:4.72 dts:421200 dts_time:4.68 duration:0 duration_time:0 stream_index:0
[48;5;0m[38;5;213m[mpeg @ 0xffff8086b390] [0m[48;5;0m[38;5;196mbuffer underflow st=0 bufi=1749 size=1782
[0mpts:428400 pts_time:4.76 dts:424800 dts_time:4.72 duration:0 duration_time:0 stream_index:0
[48;5;0m[38;5;213m[mpeg @ 0xffff8086b390] [0m[48;5;0m[38;5;196mbuffer underflow st=0 bufi=1999 size=2786
[0mpts:432000 pts_time:4.8 dts:428400 dts_time:4.76 duration:0 duration_time:0 stream_index:0
[48;5;0m[38;5;213m[mpeg @ 0xffff8086b390] [0m[48;5;0m[38;5;196mbuffer underflow st=0 bufi=1245 size=9227
[0m[48;5;0m[38;5;213m[mpeg @ 0xffff8086b390] [0m[48;5;0m[38;5;196mbuffer underflow st=0 bufi=3286 size=9227
[0m[48;5;0m[38;5;213m[mpeg @ 0xffff8086b390] [0m[48;5;0m[38;5;196mbuffer underflow st=0 bufi=5327 size=9227
[0m[48;5;0m[38;5;213m[mpeg @ 0xffff8086b390] [0m[48;5;0m[38;5;196mbuffer underflow st=0 bufi=7368 size=9227
[0mpts:435600 pts_time:4.84 dts:432000 dts_time:4.8 duration:0 duration_time:0 stream_index:0
[48;5;0m[38;5;213m[mpeg @ 0xffff8086b390] [0m[48;5;0m[38;5;196mbuffer underflow st=0 bufi=173 size=1672
[0mpts:439200 pts_time:4.88 dts:435600 dts_time:4.84 duration:0 duration_time:0 stream_index:0
[48;5;0m[38;5;213m[mpeg @ 0xffff8086b390] [0m[48;5;0m[38;5;196mbuffer underflow st=0 bufi=533 size=2012
[0mpts:442800 pts_time:4.92 dts:439200 dts_time:4.88 duration:0 duration_time:0 stream_index:0
[48;5;0m[38;5;213m[mpeg @ 0xffff8086b390] [0m[48;5;0m[38;5;196mbuffer underflow st=0 bufi=553 size=3156
[0m[48;5;0m[38;5;213m[mpeg @ 0xffff8086b390] [0m[48;5;0m[38;5;196mbuffer underflow st=0 bufi=2594 size=3156
[0mpts:446400 pts_time:4.96 dts:442800 dts_time:4.92 duration:0 duration_time:0 stream_index:0
[48;5;0m[38;5;213m[mpeg @ 0xffff8086b390] [0m[48;5;0m[38;5;196mbuffer underflow st=0 bufi=1470 size=1532
[0mpts:450000 pts_time:5 dts:446400 dts_time:4.96 duration:0 duration_time:0 stream_index:0
[48;5;0m[38;5;213m[mpeg @ 0xffff8086b390] [0m[48;5;0m[38;5;196mbuffer underflow st=0 bufi=1970 size=2028
[0mpts:453600 pts_time:5.04 dts:450000 dts_time:5 duration:0 duration_time:0 stream_index:0
[48;5;0m[38;5;213m[mpeg @ 0xffff8086b390] [0m[48;5;0m[38;5;196mbuffer underflow st=0 bufi=1974 size=2722
[0mpts:457200 pts_time:5.08 dts:453600 dts_time:5.04 duration:0 duration_time:0 stream_index:0
[48;5;0m[38;5;213m[mpeg @ 0xffff8086b390] [0m[48;5;0m[38;5;196mbuffer underflow st=0 bufi=1284 size=2740
[0mpts:460800 pts_time:5.12 dts:457200 dts_time:5.08 duration:0 duration_time:0 stream_index:0
[48;5;0m[38;5;213m[mpeg @ 0xffff8086b390] [0m[48;5;0m[38;5;196mbuffer underflow st=0 bufi=576 size=1548
[0mpts:464400 pts_time:5.16 dts:460800 dts_time:5.12 duration:0 duration_time:0 stream_index:0
[48;5;0m[38;5;213m[mpeg @ 0xffff8086b390] [0m[48;5;0m[38;5;196mbuffer underflow st=0 bufi=1060 size=2401
[0mpts:468000 pts_time:5.2 dts:464400 dts_time:5.16 duration:0 duration_time:0 stream_index:0
[48;5;0m[38;5;213m[mpeg @ 0xffff8086b390] [0m[48;5;0m[38;5;196mbuffer underflow st=0 bufi=691 size=3202
[0m[48;5;0m[38;5;213m[mpeg @ 0xffff8086b390] [0m[48;5;0m[38;5;196mbuffer underflow st=0 bufi=2732 size=3202
[0mpts:471600 pts_time:5.24 dts:468000 dts_time:5.2 duration:0 duration_time:0 stream_index:0
[48;5;0m[38;5;213m[mpeg @ 0xffff8086b390] [0m[48;5;0m[38;5;196mbuffer underflow st=0 bufi=1562 size=2010
[0mpts:475200 pts_time:5.28 dts:471600 dts_time:5.24 duration:0 duration_time:0 stream_index:0
[48;5;0m[38;5;213m[mpeg @ 0xffff8086b390] [0m[48;5;0m[38;5;196mbuffer underflow st=0 bufi=1584 size=10575
[0m[48;5;0m[38;5;213m[mpeg @ 0xffff8086b390] [0m[48;5;0m[38;5;196mbuffer underflow st=0 bufi=3625 size=10575
[0m[48;5;0m[38;5;213m[mpeg @ 0xffff8086b390] [0m[48;5;0m[38;5;196mbuffer underflow st=0 bufi=5666 size=10575
[0m[48;5;0m[38;5;213m[mpeg @ 0xffff8086b390] [0m[48;5;0m[38;5;196mbuffer underflow st=0 bufi=7707 size=10575
[0m[48;5;0m[38;5;213m[mpeg @ 0xffff8086b390] [0m[48;5;0m[38;5;196mbuffer underflow st=0 bufi=9748 size=10575
[0mpts:478800 pts_time:5.32 dts:475200 dts_time:5.28 duration:0 duration_time:0 stream_index:0
[48;5;0m[38;5;213m[mpeg @ 0xffff8086b390] [0m[48;5;0m[38;5;196mbuffer underflow st=0 bufi=1205 size=2888
[0mpts:482400 pts_time:5.36 dts:478800 dts_time:5.32 duration:0 duration_time:0 stream_index:0
[48;5;0m[38;5;213m[mpeg @ 0xffff8086b390] [0m[48;5;0m[38;5;196mbuffer underflow st=0 bufi=349 size=2480
[0m[48;5;0m[38;5;213m[mpeg @ 0xffff8086b390] [0m[48;5;0m[38;5;196mbuffer underflow st=0 bufi=2390 size=2480
[0mpts:486000 pts_time:5.4 dts:482400 dts_time:5.36 duration:0 duration_time:0 stream_index:0
[48;5;0m[38;5;213m[mpeg @ 0xffff8086b390] [0m[48;5;0m[38;5;196mbuffer underflow st=0 bufi=1942 size=3244
[0mpts:489600 pts_time:5.44 dts:486000 dts_time:5.4 duration:0 duration_time:0 stream_index:0
[48;5;0m[38;5;213m[mpeg @ 0xffff8086b390] [0m[48;5;0m[38;5;196mbuffer underflow st=0 bufi=718 size=1700
[0mpts:493200 pts_time:5.48 dts:489600 dts_time:5.44 duration:0 duration_time:0 stream_index:0
[48;5;0m[38;5;213m[mpeg @ 0xffff8086b390] [0m[48;5;0m[38;5;196mbuffer underflow st=0 bufi=1050 size=2088
[0mpts:496800 pts_time:5.52 dts:493200 dts_time:5.48 duration:0 duration_time:0 stream_index:0
[48;5;0m[38;5;213m[mpeg @ 0xffff8086b390] [0m[48;5;0m[38;5;196mbuffer underflow st=0 bufi=994 size=3454
[0m[48;5;0m[38;5;213m[mpeg @ 0xffff8086b390] [0m[48;5;0m[38;5;196mbuffer underflow st=0 bufi=3035 size=3454
[0mpts:500400 pts_time:5.56 dts:496800 dts_time:5.52 duration:0 duration_time:0 stream_index:0
[48;5;0m[38;5;213m[mpeg @ 0xffff8086b390] [0m[48;5;0m[38;5;196mbuffer underflow st=0 bufi=1613 size=2687
[0mpts:504000 pts_time:5.6 dts:500400 dts_time:5.56 duration:0 duration_time:0 stream_index:0
[48;5;0m[38;5;213m[mpeg @ 0xffff8086b390] [0m[48;5;0m[38;5;196mbuffer underflow st=0 bufi=958 size=2225
[0mpts:507600 pts_time:5.64 dts:504000 dts_time:5.6 duration:0 duration_time:0 stream_index:0
[48;5;0m[38;5;213m[mpeg @ 0xffff8086b390] [0m[48;5;0m[38;5;196mbuffer underflow st=0 bufi=765 size=2547
[0mpts:511200 pts_time:5.68 dts:507600 dts_time:5.64 duration:0 duration_time:0 stream_index:0
[48;5;0m[38;5;213m[mpeg @ 0xffff8086b390] [0m[48;5;0m[38;5;196mbuffer underflow st=0 bufi=250 size=1538
[0mpts:514800 pts_time:5.72 dts:511200 dts_time:5.68 duration:0 duration_time:0 stream_index:0
[48;5;0m[38;5;213m[mpeg @ 0xffff8086b390] [0m[48;5;0m[38;5;196mbuffer underflow st=0 bufi=744 size=2599
[0mpts:518400 pts_time:5.76 dts:514800 dts_time:5.72 duration:0 duration_time:0 stream_index:0
[48;5;0m[38;5;213m[mpeg @ 0xffff8086b390] [0m[48;5;0m[38;5;196mbuffer underflow st=0 bufi=177 size=9166
[0m[48;5;0m[38;5;213m[mpeg @ 0xffff8086b390] [0m[48;5;0m[38;5;196mbuffer underflow st=0 bufi=2218 size=9166
[0m[48;5;0m[38;5;213m[mpeg @ 0xffff8086b390] [0m[48;5;0m[38;5;196mbuffer underflow st=0 bufi=4259 size=9166
[0m[48;5;0m[38;5;213m[mpeg @ 0xffff8086b390] [0m[48;5;0m[38;5;196mbuffer underflow st=0 bufi=6300 size=9166
[0m[48;5;0m[38;5;213m[mpeg @ 0xffff8086b390] [0m[48;5;0m[38;5;196mbuffer underflow st=0 bufi=8341 size=9166
[0mpts:522000 pts_time:5.8 dts:518400 dts_time:5.76 duration:0 duration_time:0 stream_index:0
[48;5;0m[38;5;213m[mpeg @ 0xffff8086b390] [0m[48;5;0m[38;5;196mbuffer underflow st=0 bufi=1207 size=1708
[0mpts:525600 pts_time:5.84 dts:522000 dts_time:5.8 duration:0 duration_time:0 stream_index:0
[48;5;0m[38;5;213m[mpeg @ 0xffff8086b390] [0m[48;5;0m[38;5;196mbuffer underflow st=0 bufi=1531 size=2043
[0mpts:529200 pts_time:5.88 dts:525600 dts_time:5.84 duration:0 duration_time:0 stream_index:0
[48;5;0m[38;5;213m[mpeg @ 0xffff8086b390] [0m[48;5;0m[38;5;196mbuffer underflow st=0 bufi=1520 size=3166
[0mpts:532800 pts_time:5.92 dts:529200 dts_time:5.88 duration:0 duration_time:0 stream_index:0
[48;5;0m[38;5;213m[mpeg @ 0xffff8086b390] [0m[48;5;0m[38;5;196mbuffer underflow st=0 bufi=386 size=1611
[0mpts:536400 pts_time:5.96 dts:532800 dts_time:5.92 duration:0 duration_time:0 stream_index:0
[48;5;0m[38;5;213m[mpeg @ 0xffff8086b390] [0m[48;5;0m[38;5;196mbuffer underflow st=0 bufi=807 size=1941
[0mpts:540000 pts_time:6 dts:536400 dts_time:5.96 duration:0 duration_time:0 stream_index:0
[48;5;0m[38;5;213m[mpeg @ 0xffff8086b390] [0m[48;5;0m[38;5;196mbuffer underflow st=0 bufi=898 size=2722
[0mpts:543600 pts_time:6.04 dts:540000 dts_time:6 duration:0 duration_time:0 stream_index:0
[48;5;0m[38;5;213m[mpeg @ 0xffff8086b390] [0m[48;5;0m[38;5;196mbuffer underflow st=0 bufi=208 size=2994
[0m[48;5;0m[38;5;213m[mpeg @ 0xffff8086b390] [0m[48;5;0m[38;5;196mbuffer underflow st=0 bufi=2249 size=2994
[0mpts:547200 pts_time:6.08 dts:543600 dts_time:6.04 duration:0 duration_time:0 stream_index:0
[48;5;0m[38;5;213m[mpeg @ 0xffff8086b390] [0m[48;5;0m[38;5;196mbuffer underflow st=0 bufi=1287 size=1636
[0mpts:550800 pts_time:6.12 dts:547200 dts_time:6.08 duration:0 duration_time:0 stream_index:0
[48;5;0m[38;5;213m[mpeg @ 0xffff8086b390] [0m[48;5;0m[38;5;196mbuffer underflow st=0 bufi=1683 size=1951
[0mpts:554400 pts_time:6.16 dts:550800 dts_time:6.12 duration:0 duration_time:0 stream_index:0
[48;5;0m[38;5;213m[mpeg @ 0xffff8086b390] [0m[48;5;0m[38;5;196mbuffer underflow st=0 bufi=1764 size=2606
[0mpts:558000 pts_time:6.2 dts:554400 dts_time:6.16 duration:0 duration_time:0 stream_index:0
[48;5;0m[38;5;213m[mpeg @ 0xffff8086b390] [0m[48;5;0m[38;5;196mbuffer underflow st=0 bufi=1190 size=1843
[0mpts:561600 pts_time:6.24 dts:558000 dts_time:6.2 duration:0 duration_time:0 stream_index:0
[48;5;0m[38;5;213m[mpeg @ 0xffff8086b390] [0m[48;5;0m[38;5;196mbuffer underflow st=0 bufi=1379 size=10190
[0m[48;5;0m[38;5;213m[mpeg @ 0xffff8086b390] [0m[48;5;0m[38;5;196mbuffer underflow st=0 bufi=3420 size=10190
[0m[48;5;0m[38;5;213m[mpeg @ 0xffff8086b390] [0m[48;5;0m[38;5;196mbuffer underflow st=0 bufi=5461 size=10190
[0m[48;5;0m[38;5;213m[mpeg @ 0xffff8086b390] [0m[48;5;0m[38;5;196mbuffer underflow st=0 bufi=7502 size=10190
[0m[48;5;0m[38;5;213m[mpeg @ 0xffff8086b390] [0m[48;5;0m[38;5;196mbuffer underflow st=0 bufi=9543 size=10190
[0mpts:565200 pts_time:6.28 dts:561600 dts_time:6.24 duration:0 duration_time:0 stream_index:0
[48;5;0m[38;5;213m[mpeg @ 0xffff8086b390] [0m[48;5;0m[38;5;196mbuffer underflow st=0 bufi=1385 size=2348
[0mpts:568800 pts_time:6.32 dts:565200 dts_time:6.28 duration:0 duration_time:0 stream_index:0
[48;5;0m[38;5;213m[mpeg @ 0xffff8086b390] [0m[48;5;0m[38;5;196mbuffer underflow st=0 bufi=1069 size=2198
[0mpts:572400 pts_time:6.36 dts:568800 dts_time:6.32 duration:0 duration_time:0 stream_index:0
[48;5;0m[38;5;213m[mpeg @ 0xffff8086b390] [0m[48;5;0m[38;5;196mbuffer underflow st=0 bufi=903 size=2851
[0mpts:576000 pts_time:6.4 dts:572400 dts_time:6.36 duration:0 duration_time:0 stream_index:0
[48;5;0m[38;5;213m[mpeg @ 0xffff8086b390] [0m[48;5;0m[38;5;196mbuffer underflow st=0 bufi=84 size=1540
[0mpts:579600 pts_time:6.44 dts:576000 dts_time:6.4 duration:0 duration_time:0 stream_index:0
[48;5;0m[38;5;213m[mpeg @ 0xffff8086b390] [0m[48;5;0m[38;5;196mbuffer underflow st=0 bufi=576 size=1753
[0mpts:583200 pts_time:6.48 dts:579600 dts_time:6.44 duration:0 duration_time:0 stream_index:0
[48;5;0m[38;5;213m[mpeg @ 0xffff8086b390] [0m[48;5;0m[38;5;196mbuffer underflow st=0 bufi=855 size=3012
[0m[48;5;0m[38;5;213m[mpeg @ 0xffff8086b390] [0m[48;5;0m[38;5;196mbuffer underflow st=0 bufi=2896 size=3012
[0mpts:586800 pts_time:6.52 dts:583200 dts_time:6.48 duration:0 duration_time:0 stream_index:0
[48;5;0m[38;5;213m[mpeg @ 0xffff8086b390] [0m[48;5;0m[38;5;196mbuffer underflow st=0 bufi=1916 size=2676
[0mpts:590400 pts_time:6.56 dts:586800 dts_time:6.52 duration:0 duration_time:0 stream_index:0
[48;5;0m[38;5;213m[mpeg @ 0xffff8086b390] [0m[48;5;0m[38;5;196mbuffer underflow st=0 bufi=1272 size=1582
[0mpts:594000 pts_time:6.6 dts:590400 dts_time:6.56 duration:0 duration_time:0 stream_index:0
[48;5;0m[38;5;213m[mpeg @ 0xffff8086b390] [0m[48;5;0m[38;5;196mbuffer underflow st=0 bufi=1722 size=1961
[0mpts:597600 pts_time:6.64 dts:594000 dts_time:6.6 duration:0 duration_time:0 stream_index:0
[48;5;0m[38;5;213m[mpeg @ 0xffff8086b390] [0m[48;5;0m[38;5;196mbuffer underflow st=0 bufi=1793 size=1940
[0mpts:601200 pts_time:6.68 dts:597600 dts_time:6.64 duration:0 duration_time:0 stream_index:0
[48;5;0m[38;5;213m[mpeg @ 0xffff8086b390] [0m[48;5;0m[38;5;196mbuffer underflow st=0 bufi=1885 size=2641
[0mpts:604800 pts_time:6.72 dts:601200 dts_time:6.68 duration:0 duration_time:0 stream_index:0
[48;5;0m[38;5;213m[mpeg @ 0xffff8086b390] [0m[48;5;0m[38;5;196mbuffer underflow st=0 bufi=1276 size=9162
[0m[48;5;0m[38;5;213m[mpeg @ 0xffff8086b390] [0m[48;5;0m[38;5;196mbuffer underflow st=0 bufi=3317 size=9162
[0m[48;5;0m[38;5;213m[mpeg @ 0xffff8086b390] [0m[48;5;0m[38;5;196mbuffer underflow st=0 bufi=5358 size=9162
[0m[48;5;0m[38;5;213m[mpeg @ 0xffff8086b390] [0m[48;5;0m[38;5;196mbuffer underflow st=0 bufi=7399 size=9162
[0mpts:608400 pts_time:6.76 dts:604800 dts_time:6.72 duration:0 duration_time:0 stream_index:0
[48;5;0m[38;5;213m[mpeg @ 0xffff8086b390] [0m[48;5;0m[38;5;196mbuffer underflow st=0 bufi=269 size=1677
[0mpts:612000 pts_time:6.8 dts:608400 dts_time:6.76 duration:0 duration_time:0 stream_index:0
[48;5;0m[38;5;213m[mpeg @ 0xffff8086b390] [0m[48;5;0m[38;5;196mbuffer underflow st=0 bufi=624 size=2015
[0mpts:615600 pts_time:6.84 dts:612000 dts_time:6.8 duration:0 duration_time:0 stream_index:0
[48;5;0m[38;5;213m[mpeg @ 0xffff8086b390] [0m[48;5;0m[38;5;196mbuffer underflow st=0 bufi=641 size=3146
[0m[48;5;0m[38;5;213m[mpeg @ 0xffff8086b390] [0m[48;5;0m[38;5;196mbuffer underflow st=0 bufi=2682 size=3146
[0mpts:619200 pts_time:6.88 dts:615600 dts_time:6.84 duration:0 duration_time:0 stream_index:0
pts:622800 pts_time:6.92 dts:619200 dts_time:6.88 duration:0 duration_time:0 stream_index:0
[48;5;0m[38;5;213m[mpeg @ 0xffff8086b390] [0m[48;5;0m[38;5;196mbuffer underflow st=0 bufi=36 size=1969
[0mpts:626400 pts_time:6.96 dts:622800 dts_time:6.92 duration:0 duration_time:0 stream_index:0
[48;5;0m[38;5;213m[mpeg @ 0xffff8086b390] [0m[48;5;0m[38;5;196mbuffer underflow st=0 bufi=87 size=2704
[0m[48;5;0m[38;5;213m[mpeg @ 0xffff8086b390] [0m[48;5;0m[38;5;196mbuffer underflow st=0 bufi=2128 size=2704
[0mpts:630000 pts_time:7 dts:626400 dts_time:6.96 duration:0 duration_time:0 stream_index:0
[48;5;0m[38;5;213m[mpeg @ 0xffff8086b390] [0m[48;5;0m[38;5;196mbuffer underflow st=0 bufi=1456 size=2710
[0mpts:633600 pts_time:7.04 dts:630000 dts_time:7 duration:0 duration_time:0 stream_index:0
[48;5;0m[38;5;213m[mpeg @ 0xffff8086b390] [0m[48;5;0m[38;5;196mbuffer underflow st=0 bufi=778 size=1518
[0mpts:637200 pts_time:7.08 dts:633600 dts_time:7.04 duration:0 duration_time:0 stream_index:0
[48;5;0m[38;5;213m[mpeg @ 0xffff8086b390] [0m[48;5;0m[38;5;196mbuffer underflow st=0 bufi=1292 size=2101
[0mpts:640800 pts_time:7.12 dts:637200 dts_time:7.08 duration:0 duration_time:0 stream_index:0
[48;5;0m[38;5;213m[mpeg @ 0xffff8086b390] [0m[48;5;0m[38;5;196mbuffer underflow st=0 bufi=1223 size=2704
[0mpts:644400 pts_time:7.16 dts:640800 dts_time:7.12 duration:0 duration_time:0 stream_index:0
[48;5;0m[38;5;213m[mpeg @ 0xffff8086b390] [0m[48;5;0m[38;5;196mbuffer underflow st=0 bufi=551 size=1733
[0mpts:648000 pts_time:7.2 dts:644400 dts_time:7.16 duration:0 duration_time:0 stream_index:0
[48;5;0m[38;5;213m[mpeg @ 0xffff8086b390] [0m[48;5;0m[38;5;196mbuffer underflow st=0 bufi=850 size=10565
[0m[48;5;0m[38;5;213m[mpeg @ 0xffff8086b390] [0m[48;5;0m[38;5;196mbuffer underflow st=0 bufi=2891 size=10565
[0m[48;5;0m[38;5;213m[mpeg @ 0xffff8086b390] [0m[48;5;0m[38;5;196mbuffer underflow st=0 bufi=4932 size=10565
[0m[48;5;0m[38;5;213m[mpeg @ 0xffff8086b390] [0m[48;5;0m[38;5;196mbuffer underflow st=0 bufi=6973 size=10565
[0m[48;5;0m[38;5;213m[mpeg @ 0xffff8086b390] [0m[48;5;0m[38;5;196mbuffer underflow st=0 bufi=9014 size=10565
[0mpts:651600 pts_time:7.24 dts:648000 dts_time:7.2 duration:0 duration_time:0 stream_index:0
[48;5;0m[38;5;213m[mpeg @ 0xffff8086b390] [0m[48;5;0m[38;5;196mbuffer underflow st=0 bufi=481 size=2924
[0m[48;5;0m[38;5;213m[mpeg @ 0xffff8086b390] [0m[48;5;0m[38;5;196mbuffer underflow st=0 bufi=2522 size=2924
[0mpts:655200 pts_time:7.28 dts:651600 dts_time:7.24 duration:0 duration_time:0 stream_index:0
[48;5;0m[38;5;213m[mpeg @ 0xffff8086b390] [0m[48;5;0m[38;5;196mbuffer underflow st=0 bufi=1630 size=2502
[0mpts:658800 pts_time:7.32 dts:655200 dts_time:7.28 duration:0 duration_time:0 stream_index:0
[48;5;0m[38;5;213m[mpeg @ 0xffff8086b390] [0m[48;5;0m[38;5;196mbuffer underflow st=0 bufi=1160 size=3301
[0m[48;5;0m[38;5;213m[mpeg @ 0xffff8086b390] [0m[48;5;0m[38;5;196mbuffer underflow st=0 bufi=3201 size=3301
[0mpts:662400 pts_time:7.36 dts:658800 dts_time:7.32 duration:0 duration_time:0 stream_index:0
pts:666000 pts_time:7.4 dts:662400 dts_time:7.36 duration:0 duration_time:0 stream_index:0
[48;5;0m[38;5;213m[mpeg @ 0xffff8086b390] [0m[48;5;0m[38;5;196mbuffer underflow st=0 bufi=168 size=2015
[0mpts:669600 pts_time:7.44 dts:666000 dts_time:7.4 duration:0 duration_time:0 stream_index:0
[48;5;0m[38;5;213m[mpeg @ 0xffff8086b390] [0m[48;5;0m[38;5;196mbuffer underflow st=0 bufi=185 size=3379
[0m[48;5;0m[38;5;213m[mpeg @ 0xffff8086b390] [0m[48;5;0m[38;5;196mbuffer underflow st=0 bufi=2226 size=3379
[0mpts:673200 pts_time:7.48 dts:669600 dts_time:7.44 duration:0 duration_time:0 stream_index:0
[48;5;0m[38;5;213m[mpeg @ 0xffff8086b390] [0m[48;5;0m[38;5;196mbuffer underflow st=0 bufi=879 size=2993
[0m[48;5;0m[38;5;213m[mpeg @ 0xffff8086b390] [0m[48;5;0m[38;5;196mbuffer underflow st=0 bufi=2920 size=2993
[0mpts:676800 pts_time:7.52 dts:673200 dts_time:7.48 duration:0 duration_time:0 stream_index:0
[48;5;0m[38;5;213m[mpeg @ 0xffff8086b390] [0m[48;5;0m[38;5;196mbuffer underflow st=0 bufi=1959 size=2095
[0mpts:680400 pts_time:7.56 dts:676800 dts_time:7.52 duration:0 duration_time:0 stream_index:0
[48;5;0m[38;5;213m[mpeg @ 0xffff8086b390] [0m[48;5;0m[38;5;196mbuffer underflow st=0 bufi=1896 size=2714
[0mpts:684000 pts_time:7.6 dts:680400 dts_time:7.56 duration:0 duration_time:0 stream_index:0
[48;5;0m[38;5;213m[mpeg @ 0xffff8086b390] [0m[48;5;0m[38;5;196mbuffer underflow st=0 bufi=1214 size=2757
[0mpts:687600 pts_time:7.64 dts:684000 dts_time:7.6 duration:0 duration_time:0 stream_index:0
[48;5;0m[38;5;213m[mpeg @ 0xffff8086b390] [0m[48;5;0m[38;5;196mbuffer underflow st=0 bufi=489 size=2611
[0m[48;5;0m[38;5;213m[mpeg @ 0xffff8086b390] [0m[48;5;0m[38;5;196mbuffer underflow st=0 bufi=2530 size=2611
[0mpts:691200 pts_time:7.68 dts:687600 dts_time:7.64 duration:0 duration_time:0 stream_index:0
[48;5;0m[38;5;213m[mpeg @ 0xffff8086b390] [0m[48;5;0m[38;5;196mbuffer underflow st=0 bufi=1951 size=9231
[0m[48;5;0m[38;5;213m[mpeg @ 0xffff8086b390] [0m[48;5;0m[38;5;196mbuffer underflow st=0 bufi=3992 size=9231
[0m[48;5;0m[38;5;213m[mpeg @ 0xffff8086b390] [0m[48;5;0m[38;5;196mbuffer underflow st=0 bufi=6033 size=9231
[0m[48;5;0m[38;5;213m[mpeg @ 0xffff8086b390] [0m[48;5;0m[38;5;196mbuffer underflow st=0 bufi=8074 size=9231
[0mpts:694800 pts_time:7.72 dts:691200 dts_time:7.68 duration:0 duration_time:0 stream_index:0
[48;5;0m[38;5;213m[mpeg @ 0xffff8086b390] [0m[48;5;0m[38;5;196mbuffer underflow st=0 bufi=875 size=1256
[0mpts:698400 pts_time:7.76 dts:694800 dts_time:7.72 duration:0 duration_time:0 stream_index:0
pts:702000 pts_time:7.8 dts:698400 dts_time:7.76 duration:0 duration_time:0 stream_index:0
[48;5;0m[38;5;213m[mpeg @ 0xffff8086b390] [0m[48;5;0m[38;5;196mbuffer underflow st=0 bufi=105 size=2748
[0m[48;5;0m[38;5;213m[mpeg @ 0xffff8086b390] [0m[48;5;0m[38;5;196mbuffer underflow st=0 bufi=2146 size=2748
[0mpts:705600 pts_time:7.84 dts:702000 dts_time:7.8 duration:0 duration_time:0 stream_index:0
pts:709200 pts_time:7.88 dts:705600 dts_time:7.84 duration:0 duration_time:0 stream_index:0
[48;5;0m[38;5;213m[mpeg @ 0xffff8086b390] [0m[48;5;0m[38;5;196mbuffer underflow st=0 bufi=75 size=1519
[0mpts:712800 pts_time:7.92 dts:709200 dts_time:7.88 duration:0 duration_time:0 stream_index:0
[48;5;0m[38;5;213m[mpeg @ 0xffff8086b390] [0m[48;5;0m[38;5;196mbuffer underflow st=0 bufi=588 size=2458
[0mpts:716400 pts_time:7.96 dts:712800 dts_time:7.92 duration:0 duration_time:0 stream_index:0
[48;5;0m[38;5;213m[mpeg @ 0xffff8086b390] [0m[48;5;0m[38;5;196mbuffer underflow st=0 bufi=162 size=2321
[0m[48;5;0m[38;5;213m[mpeg @ 0xffff8086b390] [0m[48;5;0m[38;5;196mbuffer underflow st=0 bufi=2203 size=2321
[0mpts:720000 pts_time:8 dts:716400 dts_time:7.96 duration:0 duration_time:0 stream_index:0
pts:723600 pts_time:8.04 dts:720000 dts_time:8 duration:0 duration_time:0 stream_index:0
[48;5;0m[38;5;213m[mpeg @ 0xffff8086b390] [0m[48;5;0m[38;5;196mbuffer underflow st=0 bufi=591 size=2267
[0mpts:727200 pts_time:8.08 dts:723600 dts_time:8.04 duration:0 duration_time:0 stream_index:0
[48;5;0m[38;5;213m[mpeg @ 0xffff8086b390] [0m[48;5;0m[38;5;196mbuffer underflow st=0 bufi=356 size=2690
[0m[48;5;0m[38;5;213m[mpeg @ 0xffff8086b390] [0m[48;5;0m[38;5;196mbuffer underflow st=0 bufi=2397 size=2690
[0mpts:730800 pts_time:8.12 dts:727200 dts_time:8.08 duration:0 duration_time:0 stream_index:0
[48;5;0m[38;5;213m[mpeg @ 0xffff8086b390] [0m[48;5;0m[38;5;196mbuffer underflow st=0 bufi=1739 size=2006
[0mpts:734400 pts_time:8.16 dts:730800 dts_time:8.12 duration:0 duration_time:0 stream_index:0
[48;5;0m[38;5;213m[mpeg @ 0xffff8086b390] [0m[48;5;0m[38;5;196mbuffer underflow st=0 bufi=1765 size=10277
[0m[48;5;0m[38;5;213m[mpeg @ 0xffff8086b390] [0m[48;5;0m[38;5;196mbuffer underflow st=0 bufi=3806 size=10277
[0m[48;5;0m[38;5;213m[mpeg @ 0xffff8086b390] [0m[48;5;0m[38;5;196mbuffer underflow st=0 bufi=5847 size=10277
[0m[48;5;0m[38;5;213m[mpeg @ 0xffff8086b390] [0m[48;5;0m[38;5;196mbuffer underflow st=0 bufi=7888 size=10277
[0m[48;5;0m[38;5;213m[mpeg @ 0xffff8086b390] [0m[48;5;0m[38;5;196mbuffer underflow st=0 bufi=9929 size=10277
[0mpts:738000 pts_time:8.2 dts:734400 dts_time:8.16 duration:0 duration_time:0 stream_index:0
[48;5;0m[38;5;213m[mpeg @ 0xffff8086b390] [0m[48;5;0m[38;5;196mbuffer underflow st=0 bufi=1684 size=2360
[0mpts:741600 pts_time:8.24 dts:738000 dts_time:8.2 duration:0 duration_time:0 stream_index:0
[48;5;0m[38;5;213m[mpeg @ 0xffff8086b390] [0m[48;5;0m[38;5;196mbuffer underflow st=0 bufi=1356 size=2210
[0mpts:745200 pts_time:8.28 dts:741600 dts_time:8.24 duration:0 duration_time:0 stream_index:0
[48;5;0m[38;5;213m[mpeg @ 0xffff8086b390] [0m[48;5;0m[38;5;196mbuffer underflow st=0 bufi=1178 size=2848
[0mpts:748800 pts_time:8.32 dts:745200 dts_time:8.28 duration:0 duration_time:0 stream_index:0
[48;5;0m[38;5;213m[mpeg @ 0xffff8086b390] [0m[48;5;0m[38;5;196mbuffer underflow st=0 bufi=362 size=1608
[0mpts:752400 pts_time:8.36 dts:748800 dts_time:8.32 duration:0 duration_time:0 stream_index:0
[48;5;0m[38;5;213m[mpeg @ 0xffff8086b390] [0m[48;5;0m[38;5;196mbuffer underflow st=0 bufi=786 size=1777
[0mpts:756000 pts_time:8.4 dts:752400 dts_time:8.36 duration:0 duration_time:0 stream_index:0
[48;5;0m[38;5;213m[mpeg @ 0xffff8086b390] [0m[48;5;0m[38;5;196mbuffer underflow st=0 bufi=1029 size=2992
[0mpts:759600 pts_time:8.44 dts:756000 dts_time:8.4 duration:0 duration_time:0 stream_index:0
[48;5;0m[38;5;213m[mpeg @ 0xffff8086b390] [0m[48;5;0m[38;5;196mbuffer underflow st=0 bufi=69 size=2078
[0mpts:763200 pts_time:8.48 dts:759600 dts_time:8.44 duration:0 duration_time:0 stream_index:0
[48;5;0m[38;5;213m[mpeg @ 0xffff8086b390] [0m[48;5;0m[38;5;196mbuffer underflow st=0 bufi=23 size=1669
[0mpts:766800 pts_time:8.52 dts:763200 dts_time:8.48 duration:0 duration_time:0 stream_index:0
[48;5;0m[38;5;213m[mpeg @ 0xffff8086b390] [0m[48;5;0m[38;5;196mbuffer underflow st=0 bufi=386 size=2395
[0mpts:770400 pts_time:8.56 dts:766800 dts_time:8.52 duration:0 duration_time:0 stream_index:0
[48;5;0m[38;5;213m[mpeg @ 0xffff8086b390] [0m[48;5;0m[38;5;196mbuffer underflow st=0 bufi=23 size=1812
[0mpts:774000 pts_time:8.6 dts:770400 dts_time:8.56 duration:0 duration_time:0 stream_index:0
[48;5;0m[38;5;213m[mpeg @ 0xffff8086b390] [0m[48;5;0m[38;5;196mbuffer underflow st=0 bufi=243 size=2087
[0mpts:777600 pts_time:8.64 dts:774000 dts_time:8.6 duration:0 duration_time:0 stream_index:0
[48;5;0m[38;5;213m[mpeg @ 0xffff8086b390] [0m[48;5;0m[38;5;196mbuffer underflow st=0 bufi=188 size=9212
[0m[48;5;0m[38;5;213m[mpeg @ 0xffff8086b390] [0m[48;5;0m[38;5;196mbuffer underflow st=0 bufi=2229 size=9212
[0m[48;5;0m[38;5;213m[mpeg @ 0xffff8086b390] [0m[48;5;0m[38;5;196mbuffer underflow st=0 bufi=4270 size=9212
[0m[48;5;0m[38;5;213m[mpeg @ 0xffff8086b390] [0m[48;5;0m[38;5;196mbuffer underflow st=0 bufi=6311 size=9212
[0m[48;5;0m[38;5;213m[mpeg @ 0xffff8086b390] [0m[48;5;0m[38;5;196mbuffer underflow st=0 bufi=8352 size=9212
[0mpts:781200 pts_time:8.68 dts:777600 dts_time:8.64 duration:0 duration_time:0 stream_index:0
[48;5;0m[38;5;213m[mpeg @ 0xffff8086b390] [0m[48;5;0m[38;5;196mbuffer underflow st=0 bufi=1172 size=1670
[0mpts:784800 pts_time:8.72 dts:781200 dts_time:8.68 duration:0 duration_time:0 stream_index:0
[48;5;0m[38;5;213m[mpeg @ 0xffff8086b390] [0m[48;5;0m[38;5;196mbuffer underflow st=0 bufi=1534 size=2010
[0mpts:788400 pts_time:8.76 dts:784800 dts_time:8.72 duration:0 duration_time:0 stream_index:0
[48;5;0m[38;5;213m[mpeg @ 0xffff8086b390] [0m[48;5;0m[38;5;196mbuffer underflow st=0 bufi=1556 size=3155
[0mpts:792000 pts_time:8.8 dts:788400 dts_time:8.76 duration:0 duration_time:0 stream_index:0
[48;5;0m[38;5;213m[mpeg @ 0xffff8086b390] [0m[48;5;0m[38;5;196mbuffer underflow st=0 bufi=433 size=1506
[0mpts:795600 pts_time:8.84 dts:792000 dts_time:8.8 duration:0 duration_time:0 stream_index:0
[48;5;0m[38;5;213m[mpeg @ 0xffff8086b390] [0m[48;5;0m[38;5;196mbuffer underflow st=0 bufi=959 size=2012
[0mpts:799200 pts_time:8.88 dts:795600 dts_time:8.84 duration:0 duration_time:0 stream_index:0
[48;5;0m[38;5;213m[mpeg @ 0xffff8086b390] [0m[48;5;0m[38;5;196mbuffer underflow st=0 bufi=979 size=2738
[0mpts:802800 pts_time:8.92 dts:799200 dts_time:8.88 duration:0 duration_time:0 stream_index:0
[48;5;0m[38;5;213m[mpeg @ 0xffff8086b390] [0m[48;5;0m[38;5;196mbuffer underflow st=0 bufi=273 size=2739
[0m[48;5;0m[38;5;213m[mpeg @ 0xffff8086b390] [0m[48;5;0m[38;5;196mbuffer underflow st=0 bufi=2314 size=2739
[0mpts:806400 pts_time:8.96 dts:802800 dts_time:8.92 duration:0 duration_time:0 stream_index:0
pts:810000 pts_time:9 dts:806400 dts_time:8.96 duration:0 duration_time:0 stream_index:0
[48;5;0m[38;5;213m[mpeg @ 0xffff8086b390] [0m[48;5;0m[38;5;196mbuffer underflow st=0 bufi=31 size=2004
[0mpts:813600 pts_time:9.04 dts:810000 dts_time:9 duration:0 duration_time:0 stream_index:0
[48;5;0m[38;5;213m[mpeg @ 0xffff8086b390] [0m[48;5;0m[38;5;196mbuffer underflow st=0 bufi=59 size=2699
[0m[48;5;0m[38;5;213m[mpeg @ 0xffff8086b390] [0m[48;5;0m[38;5;196mbuffer underflow st=0 bufi=2100 size=2699
[0mpts:817200 pts_time:9.08 dts:813600 dts_time:9.04 duration:0 duration_time:0 stream_index:0
[48;5;0m[38;5;213m[mpeg @ 0xffff8086b390] [0m[48;5;0m[38;5;196mbuffer underflow st=0 bufi=1433 size=1683
[0mpts:820800 pts_time:9.12 dts:817200 dts_time:9.08 duration:0 duration_time:0 stream_index:0
[48;5;0m[38;5;213m[mpeg @ 0xffff8086b390] [0m[48;5;0m[38;5;196mbuffer underflow st=0 bufi=1782 size=10190
[0m[48;5;0m[38;5;213m[mpeg @ 0xffff8086b390] [0m[48;5;0m[38;5;196mbuffer underflow st=0 bufi=3823 size=10190
[0m[48;5;0m[38;5;213m[mpeg @ 0xffff8086b390] [0m[48;5;0m[38;5;196mbuffer underflow st=0 bufi=5864 size=10190
[0m[48;5;0m[38;5;213m[mpeg @ 0xffff8086b390] [0m[48;5;0m[38;5;196mbuffer underflow st=0 bufi=7905 size=10190
[0m[48;5;0m[38;5;213m[mpeg @ 0xffff8086b390] [0m[48;5;0m[38;5;196mbuffer underflow st=0 bufi=9946 size=10190
[0mpts:824400 pts_time:9.16 dts:820800 dts_time:9.12 duration:0 duration_time:0 stream_index:0
[48;5;0m[38;5;213m[mpeg @ 0xffff8086b390] [0m[48;5;0m[38;5;196mbuffer underflow st=0 bufi=1788 size=2374
[0mpts:828000 pts_time:9.2 dts:824400 dts_time:9.16 duration:0 duration_time:0 stream_index:0
[48;5;0m[38;5;213m[mpeg @ 0xffff8086b390] [0m[48;5;0m[38;5;196mbuffer underflow st=0 bufi=1446 size=2210
[0mpts:831600 pts_time:9.24 dts:828000 dts_time:9.2 duration:0 duration_time:0 stream_index:0
[48;5;0m[38;5;213m[mpeg @ 0xffff8086b390] [0m[48;5;0m[38;5;196mbuffer underflow st=0 bufi=1268 size=3191
[0mpts:835200 pts_time:9.28 dts:831600 dts_time:9.24 duration:0 duration_time:0 stream_index:0
[48;5;0m[38;5;213m[mpeg @ 0xffff8086b390] [0m[48;5;0m[38;5;196mbuffer underflow st=0 bufi=109 size=1674
[0mpts:838800 pts_time:9.32 dts:835200 dts_time:9.28 duration:0 duration_time:0 stream_index:0
[48;5;0m[38;5;213m[mpeg @ 0xffff8086b390] [0m[48;5;0m[38;5;196mbuffer underflow st=0 bufi=467 size=2060
[0mpts:842400 pts_time:9.36 dts:838800 dts_time:9.32 duration:0 duration_time:0 stream_index:0
[48;5;0m[38;5;213m[mpeg @ 0xffff8086b390] [0m[48;5;0m[38;5;196mbuffer underflow st=0 bufi=439 size=3537
[0m[48;5;0m[38;5;213m[mpeg @ 0xffff8086b390] [0m[48;5;0m[38;5;196mbuffer underflow st=0 bufi=2480 size=3537
[0mpts:846000 pts_time:9.4 dts:842400 dts_time:9.36 duration:0 duration_time:0 stream_index:0
[48;5;0m[38;5;213m[mpeg @ 0xffff8086b390] [0m[48;5;0m[38;5;196mbuffer underflow st=0 bufi=975 size=2912
[0mpts:849600 pts_time:9.44 dts:846000 dts_time:9.4 duration:0 duration_time:0 stream_index:0
[48;5;0m[38;5;213m[mpeg @ 0xffff8086b390] [0m[48;5;0m[38;5;196mbuffer underflow st=0 bufi=95 size=2237
[0m[48;5;0m[38;5;213m[mpeg @ 0xffff8086b390] [0m[48;5;0m[38;5;196mbuffer underflow st=0 bufi=2136 size=2237
[0mpts:853200 pts_time:9.48 dts:849600 dts_time:9.44 duration:0 duration_time:0 stream_index:0
[48;5;0m[38;5;213m[mpeg @ 0xffff8086b390] [0m[48;5;0m[38;5;196mbuffer underflow st=0 bufi=1931 size=2773
[0mpts:856800 pts_time:9.52 dts:853200 dts_time:9.48 duration:0 duration_time:0 stream_index:0
[48;5;0m[38;5;213m[mpeg @ 0xffff8086b390] [0m[48;5;0m[38;5;196mbuffer underflow st=0 bufi=1190 size=2786
[0mpts:860400 pts_time:9.56 dts:856800 dts_time:9.52 duration:0 duration_time:0 stream_index:0
[48;5;0m[38;5;213m[mpeg @ 0xffff8086b390] [0m[48;5;0m[38;5;196mbuffer underflow st=0 bufi=436 size=2497
[0m[48;5;0m[38;5;213m[mpeg @ 0xffff8086b390] [0m[48;5;0m[38;5;196mbuffer underflow st=0 bufi=2477 size=2497
[0mpts:864000 pts_time:9.6 dts:860400 dts_time:9.56 duration:0 duration_time:0 stream_index:0
[48;5;0m[38;5;213m[mpeg @ 0xffff8086b390] [0m[48;5;0m[38;5;196mbuffer underflow st=0 bufi=2012 size=9210
[0m[48;5;0m[38;5;213m[mpeg @ 0xffff8086b390] [0m[48;5;0m[38;5;196mbuffer underflow st=0 bufi=4053 size=9210
[0m[48;5;0m[38;5;213m[mpeg @ 0xffff8086b390] [0m[48;5;0m[38;5;196mbuffer underflow st=0 bufi=6094 size=9210
[0m[48;5;0m[38;5;213m[mpeg @ 0xffff8086b390] [0m[48;5;0m[38;5;196mbuffer underflow st=0 bufi=8135 size=9210
[0mpts:867600 pts_time:9.64 dts:864000 dts_time:9.6 duration:0 duration_time:0 stream_index:0
[48;5;0m[38;5;213m[mpeg @ 0xffff8086b390] [0m[48;5;0m[38;5;196mbuffer underflow st=0 bufi=957 size=1985
[0mpts:871200 pts_time:9.68 dts:867600 dts_time:9.64 duration:0 duration_time:0 stream_index:0
[48;5;0m[38;5;213m[mpeg @ 0xffff8086b390] [0m[48;5;0m[38;5;196mbuffer underflow st=0 bufi=1004 size=2557
[0mpts:874800 pts_time:9.72 dts:871200 dts_time:9.68 duration:0 duration_time:0 stream_index:0
[48;5;0m[38;5;213m[mpeg @ 0xffff8086b390] [0m[48;5;0m[38;5;196mbuffer underflow st=0 bufi=479 size=3428
[0m[48;5;0m[38;5;213m[mpeg @ 0xffff8086b390] [0m[48;5;0m[38;5;196mbuffer underflow st=0 bufi=2520 size=3428
[0mpts:878400 pts_time:9.76 dts:874800 dts_time:9.72 duration:0 duration_time:0 stream_index:0
[48;5;0m[38;5;213m[mpeg @ 0xffff8086b390] [0m[48;5;0m[38;5;196mbuffer underflow st=0 bufi=1124 size=1590
[0mpts:882000 pts_time:9.8 dts:878400 dts_time:9.76 duration:0 duration_time:0 stream_index:0
[48;5;0m[38;5;213m[mpeg @ 0xffff8086b390] [0m[48;5;0m[38;5;196mbuffer underflow st=0 bufi=1566 size=1921
[0mpts:885600 pts_time:9.84 dts:882000 dts_time:9.8 duration:0 duration_time:0 stream_index:0
[48;5;0m[38;5;213m[mpeg @ 0xffff8086b390] [0m[48;5;0m[38;5;196mbuffer underflow st=0 bufi=1665 size=2857
[0mpts:889200 pts_time:9.88 dts:885600 dts_time:9.84 duration:0 duration_time:0 stream_index:0
[48;5;0m[38;5;213m[mpeg @ 0xffff8086b390] [0m[48;5;0m[38;5;196mbuffer underflow st=0 bufi=840 size=2736
[0mpts:892800 pts_time:9.92 dts:889200 dts_time:9.88 duration:0 duration_time:0 stream_index:0
[48;5;0m[38;5;213m[mpeg @ 0xffff8086b390] [0m[48;5;0m[38;5;196mbuffer underflow st=0 bufi=136 size=1505
[0mpts:896400 pts_time:9.96 dts:892800 dts_time:9.92 duration:0 duration_time:0 stream_index:0
[48;5;0m[38;5;213m[mpeg @ 0xffff8086b390] [0m[48;5;0m[38;5;196mbuffer underflow st=0 bufi=663 size=1788
[0mpts:900000 pts_time:10 dts:896400 dts_time:9.96 duration:0 duration_time:0 stream_index:0
[48;5;0m[38;5;213m[mpeg @ 0xffff8086b390] [0m[48;5;0m[38;5;196mbuffer underflow st=0 bufi=907 size=2168
[0m